<svg width="23" height="17" viewBox="0 0 23 17" fill="none" xmlns="http://www.w3.org/2000/svg">
<path d="M21.5919 3.34536C21.473 2.87592 21.231 2.44581 20.8903 2.09846C20.5496 1.75112 20.1222 1.49883 19.6513 1.3671C17.9307 0.95166 11.0485 0.95166 11.0485 0.95166C11.0485 0.95166 4.16632 0.95166 2.44577 1.40666C1.97487 1.5384 1.54746 1.79068 1.20672 2.13803C0.865983 2.48538 0.623978 2.91549 0.505152 3.38492C0.190266 5.1115 0.0362386 6.86301 0.0450054 8.61742C0.0337811 10.385 0.187819 12.1499 0.505152 13.8895C0.636153 14.3443 0.883579 14.7581 1.22352 15.0908C1.56347 15.4234 1.98444 15.6638 2.44577 15.7886C4.16632 16.2436 11.0485 16.2436 11.0485 16.2436C11.0485 16.2436 17.9307 16.2436 19.6513 15.7886C20.1222 15.6569 20.5496 15.4046 20.8903 15.0572C21.231 14.7099 21.473 14.2798 21.5919 13.8104C21.9043 12.0968 22.0583 10.3586 22.052 8.61742C22.0632 6.8498 21.9092 5.08494 21.5919 3.34536Z" fill="#F2F2F2"/>
<path d="M8.79785 11.852L14.5497 8.61751L8.79785 5.38306V11.852Z" fill="#333333"/>
</svg>
