<svg width="114" height="46" viewBox="0 0 114 46" fill="none" xmlns="http://www.w3.org/2000/svg">
<path fill-rule="evenodd" clip-rule="evenodd" d="M31.8086 26.7629C32.13 26.9163 32.5111 26.7903 32.6875 26.4809C34.142 23.9302 34.973 20.9779 34.973 17.8314C34.973 8.17389 27.1441 0.34491 17.4865 0.34491C7.82898 0.34491 0 8.17389 0 17.8314C0 27.489 7.82898 35.318 17.4865 35.318C20.1817 35.318 22.7344 34.7082 25.0143 33.6192C25.5086 33.3831 25.5347 32.7042 25.0974 32.3743C24.4312 31.8716 23.797 31.3212 23.2002 30.7255C22.4659 29.9926 21.8002 29.203 21.2075 28.3667C21.0157 28.0962 20.6713 27.9794 20.3519 28.0686C19.4403 28.3232 18.4793 28.4594 17.4865 28.4594C11.6169 28.4594 6.8586 23.7011 6.8586 17.8314C6.8586 11.9618 11.6169 7.20351 17.4865 7.20351C23.3562 7.20351 28.1144 11.9618 28.1144 17.8314C28.1144 19.2614 27.832 20.6255 27.3199 21.8708C27.2371 22.0722 27.2381 22.3004 27.3406 22.4925C27.7976 23.3483 28.3815 24.1391 29.0793 24.8356C29.8799 25.6348 30.8043 26.2838 31.8086 26.7629Z" fill="#652D90"/>
<path d="M19.3417 18.7657C18.9382 18.7882 18.6279 19.1339 18.6672 19.536C19.0616 23.5634 20.8423 27.3381 23.717 30.2076C26.5917 33.077 30.3698 34.8508 34.3979 35.2377C34.8001 35.2764 35.1452 34.9653 35.167 34.5619L35.4579 29.1744C35.4797 28.7709 35.1697 28.4288 34.7687 28.3793C32.4278 28.0904 30.2415 27.0294 28.5623 25.3534C26.8832 23.6773 25.8181 21.493 25.525 19.1526C25.4748 18.7516 25.132 18.4423 24.7286 18.4648L19.3417 18.7657Z" fill="#24D0F6"/>
<path d="M40.2097 35.4228H40.6483H43.7263V14.7161H40.2097V35.4228Z" fill="white"/>
<path d="M43.9083 7.5956C43.387 7.06509 42.7002 6.77496 41.9638 6.78325C41.2274 6.77496 40.5489 7.06509 40.0276 7.5956C39.4981 8.11783 39.2085 8.79755 39.2167 9.5353C39.2085 10.273 39.4981 10.9528 40.0276 11.475C40.5489 12.0055 41.2274 12.2873 41.9638 12.2873C42.7002 12.2956 43.3787 12.0055 43.9 11.475C44.4295 10.9528 44.7109 10.273 44.7109 9.5353C44.7191 8.79755 44.4378 8.11783 43.9083 7.5956Z" fill="white"/>
<path d="M51.3304 7.59573C50.8091 7.06521 50.1306 6.78338 49.3942 6.78338C48.6578 6.77509 47.9793 7.06521 47.458 7.59573C46.9285 8.11795 46.6471 8.79767 46.6471 9.53542C46.6389 10.2732 46.9285 10.9529 47.458 11.4751C47.9793 12.0056 48.6578 12.2875 49.3942 12.2875C50.1306 12.2958 50.8091 12.0056 51.3304 11.4751C51.86 10.9529 52.1413 10.2732 52.1413 9.53542C52.1413 8.79767 51.86 8.11795 51.3304 7.59573Z" fill="white"/>
<path d="M47.6318 35.4228H48.0704H51.1484V14.7161H47.6318V35.4228Z" fill="white"/>
<path d="M65.7195 14.3847C62.8401 14.3764 60.424 15.4125 58.5705 17.4351V14.7162H58.132H55.054V46H58.5705V32.704C60.424 34.7266 62.8401 35.7627 65.7195 35.7544C68.6569 35.7627 71.2054 34.7017 73.2657 32.6294C75.3343 30.5653 76.3851 28.0123 76.3851 25.0696C76.3934 22.1269 75.3343 19.5738 73.2657 17.5097C71.2054 15.4374 68.6569 14.3764 65.7195 14.3847ZM65.7195 32.2315C63.7337 32.2232 62.0871 31.5435 60.6722 30.126C59.2656 28.7086 58.5788 27.059 58.5705 25.0696C58.5788 23.0801 59.2573 21.4306 60.6722 20.0131C62.0871 18.6039 63.7337 17.9159 65.7195 17.9076C67.7054 17.9159 69.352 18.5956 70.7669 20.0131C72.1735 21.4306 72.8603 23.0884 72.8686 25.0696C72.8603 27.059 72.1818 28.7086 70.7669 30.126C69.352 31.5435 67.7054 32.2232 65.7195 32.2315Z" fill="white"/>
<path d="M89.1026 14.3847C86.0411 14.3764 83.5091 15.4042 81.6226 17.4351C79.7443 19.4577 78.801 22.0357 78.801 25.0696C78.801 28.0537 79.7857 30.6234 81.7467 32.6626C83.716 34.7266 86.3803 35.7545 89.6321 35.7545C92.7598 35.7545 95.3497 34.9338 97.3355 33.2511L97.5837 33.0439L96.2516 29.811L95.7965 30.1675C94.0258 31.5435 92.0234 32.2232 89.7148 32.2232C87.6794 32.2232 86.0162 31.6761 84.6758 30.5902C83.4595 29.6038 82.7644 28.3604 82.4996 26.8269H98.618L98.6842 26.4705C98.7752 25.998 98.8166 25.5006 98.8166 24.9867C98.8166 21.7953 97.9147 19.1925 96.0778 17.2693C94.2574 15.3462 91.891 14.3764 89.1026 14.3847ZM88.9784 17.9076C91.0387 17.9159 92.5198 18.5127 93.5541 19.6981C94.514 20.8006 95.0352 21.9942 95.2007 23.3039H82.4748C82.6403 22.0025 83.203 20.8089 84.229 19.7064C85.346 18.521 86.885 17.9159 88.9784 17.9076Z" fill="white"/>
<path d="M113.553 14.3846C111.592 14.3846 109.78 14.8157 108.134 15.6777C107.008 16.2663 106.106 17.0123 105.42 17.8993V14.7162H101.903V35.4311H105.411V25.484C105.411 23.6189 105.8 22.0937 106.562 20.8834C107.331 19.6649 108.316 18.8608 109.573 18.4215H109.582C110.268 18.1728 110.972 18.0485 111.708 18.0485C112.271 18.0485 112.85 18.1231 113.454 18.2723L114 18.4049V14.3846H113.553Z" fill="white"/>
</svg>
