<svg width="31" height="35" viewBox="0 0 31 35" fill="none" xmlns="http://www.w3.org/2000/svg">
<path d="M7.4322 22.9626C7.68492 23.1117 7.98359 23.1346 8.24779 22.997L11.3149 21.4608C11.6021 21.3233 11.7744 21.0252 11.7744 20.7157V6.59187C11.7744 6.2938 11.6135 6.01867 11.3493 5.86963L8.29374 4.09269C8.02954 3.94366 7.71938 3.94366 7.45518 4.09269C7.19097 4.24173 7.03015 4.51686 7.03015 4.81493V22.2519C7.04164 22.5385 7.19097 22.8136 7.4322 22.9626Z" fill="#E22424"/>
<path d="M17.8281 9.58401L16.2888 8.70127L14.7495 7.81853C14.4853 7.6695 14.1752 7.6695 13.911 7.81853C13.6468 7.96757 13.486 8.24271 13.486 8.54077V17.1159C13.486 17.4025 13.6353 17.6777 13.888 17.8267C14.1407 17.9758 14.4394 17.9987 14.7036 17.8611L17.7707 16.3249C18.0579 16.1873 18.2302 15.8893 18.2302 15.5798V10.3177C18.2531 10.0082 18.0923 9.73304 17.8281 9.58401Z" fill="#E22424"/>
<path d="M17.8511 18.4687C17.5984 18.3197 17.2997 18.2968 17.0355 18.4343L13.9684 19.9705C13.6812 20.1081 13.5089 20.4062 13.5089 20.7157V22.4238L4.75569 27.1127V2.5565C4.75569 2.25843 4.59487 1.9833 4.33067 1.83426L1.344 0.114641C1.21764 0.0458565 1.06831 0 0.918974 0H0.838564C0.620308 0 0.402051 0.0917131 0.241231 0.240747C0.0918974 0.401245 0 0.619063 0 0.836882V34.1631C0 34.4612 0.160821 34.7363 0.425026 34.8854C0.689231 35.0344 1.01087 35.0344 1.26359 34.8854L14.7381 27.0668C14.7495 27.0668 14.7495 27.0668 14.761 27.0554L17.8281 25.3128C18.0923 25.1638 18.2531 24.8886 18.2531 24.5791V19.168C18.2531 18.8929 18.1038 18.6178 17.8511 18.4687Z" fill="#E22424"/>
<path d="M30.2113 16.302L26.1104 13.7226L22.0094 11.1431C21.7912 11.0056 21.5385 10.9368 21.2972 10.9368C21.079 10.9368 20.8492 10.9941 20.654 11.0973C20.2289 11.3266 19.9647 11.7737 19.9647 12.2666V17.437V22.6073C19.9647 23.0888 20.2289 23.5359 20.654 23.7766C20.8492 23.8913 21.079 23.9371 21.2972 23.9371C21.55 23.9371 21.7912 23.8683 22.0094 23.7308L26.1104 21.1513L30.2113 18.5719C30.6019 18.3312 30.8316 17.907 30.8316 17.4484C30.8316 16.9784 30.6019 16.5428 30.2113 16.302ZM26.5239 17.758L25.3407 18.5031L24.1575 19.2483C24.0886 19.2827 24.0197 19.3056 23.9508 19.3056C23.8819 19.3056 23.8244 19.2941 23.767 19.2598C23.6406 19.191 23.5717 19.0649 23.5717 18.9273V17.437V15.9466C23.5717 15.8091 23.6521 15.6829 23.767 15.6142C23.8244 15.5798 23.8933 15.5683 23.9508 15.5683C24.0197 15.5683 24.0886 15.5912 24.1575 15.6256L25.3407 16.3708L26.5239 17.116C26.6388 17.1847 26.7077 17.3109 26.7077 17.437C26.7077 17.5631 26.6388 17.6892 26.5239 17.758Z" fill="#E22424"/>
</svg>
