<svg width="234" height="65" viewBox="0 0 234 65" fill="none" xmlns="http://www.w3.org/2000/svg">
<path d="M227.262 64.3998H227.262H6.74713H6.74652C5.11229 64.4015 3.54802 63.7746 2.3968 62.6629C1.24633 61.5519 0.602537 60.0483 0.600324 58.4839V6.52457C0.602536 4.95928 1.24617 3.45472 2.39654 2.34236C3.54764 1.22931 5.11201 0.600614 6.74713 0.600165C6.74718 0.600165 6.74723 0.600165 6.74728 0.600165H227.26C228.069 0.600165 228.869 0.754421 229.615 1.05368C230.362 1.35292 231.038 1.79104 231.608 2.34211C232.177 2.89312 232.627 3.54621 232.934 4.26355C233.241 4.98085 233.398 5.74889 233.398 6.524L233.4 58.4843C233.4 59.259 233.242 60.0265 232.935 60.7431C232.628 61.4599 232.178 62.1123 231.609 62.6626C231.039 63.213 230.363 63.6503 229.617 63.9488C228.871 64.2472 228.071 64.4006 227.262 64.3998Z" stroke="white" stroke-width="0.3"/>
<path d="M72.5709 31.1367C72.5367 27.3404 75.6801 25.4934 75.8239 25.4075C74.0436 22.8126 71.2843 22.458 70.3146 22.4298C67.9971 22.1859 65.7491 23.8161 64.5685 23.8161C63.3644 23.8161 61.5465 22.4533 59.5871 22.4934C57.0658 22.5322 54.707 23.9916 53.4134 26.2579C50.7436 30.8787 52.7347 37.6692 55.2926 41.4043C56.5721 43.2347 58.0672 45.276 60.0242 45.2042C61.9388 45.1264 62.654 43.985 64.9644 43.985C67.2537 43.985 67.9252 45.2042 69.9211 45.1582C71.9759 45.1264 73.2695 43.3207 74.5043 41.475C75.9829 39.3795 76.5767 37.3135 76.6003 37.2075C76.5532 37.191 72.6109 35.6857 72.5709 31.1367ZM68.8006 19.9727C69.8304 18.6853 70.5349 16.9338 70.3394 15.1563C68.8489 15.2223 66.985 16.187 65.9117 17.4461C64.9621 18.5557 64.1138 20.3744 64.3329 22.0846C66.0071 22.2095 67.7261 21.2401 68.8006 19.9727Z" fill="white"/>
<path d="M100.302 44.9414H97.6263L96.1606 40.337H91.0661L89.6699 44.9414H87.0649L92.1135 29.2661H95.231L100.302 44.9414ZM95.7188 38.4053L94.3933 34.3122C94.2531 33.894 93.9892 32.9093 93.6028 31.3592H93.5556C93.4001 32.0259 93.1515 33.0106 92.811 34.3122L91.5079 38.4053H95.7188ZM113.26 39.1509C113.26 41.0732 112.738 42.5927 111.693 43.7081C110.757 44.7011 109.594 45.197 108.208 45.197C106.71 45.197 105.633 44.6634 104.979 43.5939V49.5245H102.468V37.3535C102.468 36.1461 102.436 34.9082 102.374 33.6384H104.584L104.724 35.43H104.771C105.609 34.0801 106.88 33.4052 108.586 33.4052C109.92 33.4052 111.033 33.9317 111.924 34.9859C112.813 36.0425 113.26 37.43 113.26 39.1509ZM110.701 39.2428C110.701 38.1426 110.453 37.2357 109.956 36.5207C109.413 35.7774 108.684 35.4052 107.769 35.4052C107.15 35.4052 106.586 35.6125 106.083 36.0213C105.579 36.4335 105.249 36.9718 105.095 37.6385C105.026 37.8878 104.987 38.1444 104.978 38.4029V40.2887C104.978 41.1097 105.23 41.8035 105.735 42.3712C106.239 42.9366 106.894 43.2205 107.7 43.2205C108.646 43.2205 109.382 42.8542 109.909 42.1274C110.437 41.3983 110.701 40.4372 110.701 39.2428ZM126.264 39.1509C126.264 41.0732 125.742 42.5927 124.697 43.7081C123.76 44.7011 122.598 45.197 121.21 45.197C119.713 45.197 118.636 44.6634 117.982 43.5939V49.5245H115.47V37.3535C115.47 36.1461 115.438 34.9082 115.377 33.6384H117.586L117.726 35.43H117.773C118.61 34.0801 119.881 33.4052 121.588 33.4052C122.921 33.4052 124.034 33.9317 124.928 34.9859C125.816 36.0425 126.264 37.43 126.264 39.1509ZM123.703 39.2428C123.703 38.1426 123.455 37.2357 122.958 36.5207C122.414 35.7774 121.687 35.4052 120.773 35.4052C120.153 35.4052 119.59 35.6125 119.085 36.0213C118.581 36.4335 118.252 36.9718 118.097 37.6385C118.021 37.9495 117.98 38.2027 117.98 38.4029V40.2887C117.98 41.1097 118.233 41.8035 118.735 42.3712C119.239 42.9354 119.894 43.2205 120.702 43.2205C121.65 43.2205 122.386 42.8542 122.912 42.1274C123.439 41.3983 123.703 40.4372 123.703 39.2428ZM140.803 40.5443C140.803 41.8789 140.336 42.9637 139.409 43.8012C138.388 44.7152 136.964 45.1734 135.138 45.1734C133.451 45.1734 132.098 44.8483 131.078 44.197L131.659 42.1039C132.76 42.7564 133.97 43.0815 135.287 43.0815C136.235 43.0815 136.971 42.8671 137.497 42.4419C138.023 42.0155 138.289 41.4454 138.289 40.734C138.289 40.0967 138.069 39.5632 137.637 39.1285C137.202 38.6951 136.483 38.291 135.474 37.92C132.728 36.8964 131.355 35.3993 131.355 33.4299C131.355 32.1437 131.84 31.0906 132.808 30.2673C133.777 29.4451 135.061 29.0341 136.659 29.0341C138.086 29.0341 139.274 29.2826 140.218 29.7785L139.588 31.8256C138.699 31.3451 137.697 31.1048 136.575 31.1048C135.689 31.1048 134.994 31.3227 134.497 31.7561C134.079 32.1437 133.866 32.616 133.866 33.1767C133.866 33.7951 134.108 34.3086 134.589 34.7115C135.006 35.0825 135.767 35.4865 136.867 35.92C138.218 36.4642 139.21 37.0979 139.845 37.8258C140.484 38.5537 140.803 39.4619 140.803 40.5443ZM149.129 35.523H146.36V41.0108C146.36 42.4066 146.848 43.1027 147.826 43.1027C148.275 43.1027 148.647 43.065 148.942 42.9861L149.011 44.8931C148.516 45.078 147.865 45.1711 147.058 45.1711C146.066 45.1711 145.29 44.8684 144.731 44.2629C144.173 43.6575 143.893 42.6433 143.893 41.2157V35.5183H142.243V33.6337H143.893V31.5642L146.36 30.8197V33.6337H149.129V35.523ZM161.597 39.1968C161.597 40.9342 161.099 42.3606 160.107 43.4761C159.069 44.6245 157.688 45.197 155.967 45.197C154.306 45.197 152.985 44.6469 152 43.5479C151.015 42.4466 150.523 41.0591 150.523 39.3853C150.523 37.6338 151.032 36.1991 152.046 35.0837C153.063 33.967 154.432 33.4087 156.153 33.4087C157.812 33.4087 159.145 33.96 160.153 35.0601C161.117 36.1273 161.597 37.5054 161.597 39.1968ZM158.993 39.2546C158.993 38.2192 158.769 37.3311 158.32 36.5878C157.793 35.6903 157.039 35.2415 156.063 35.2415C155.056 35.2415 154.285 35.6903 153.759 36.5878C153.309 37.3311 153.085 38.2345 153.085 39.3017C153.085 40.3382 153.309 41.2287 153.759 41.9696C154.302 42.8671 155.06 43.3159 156.041 43.3159C157.002 43.3159 157.754 42.8577 158.299 41.9472C158.761 41.1863 158.993 40.2923 158.993 39.2546ZM169.765 35.8469C169.504 35.7998 169.239 35.7765 168.973 35.7774C168.09 35.7774 167.406 36.1096 166.926 36.7786C166.508 37.3676 166.299 38.112 166.299 39.0107V44.9414H163.787V37.198C163.789 36.0114 163.765 34.825 163.714 33.6396H165.902L165.994 35.8022H166.063C166.329 35.0589 166.746 34.4594 167.319 34.0106C167.843 33.6185 168.48 33.4061 169.135 33.4052C169.367 33.4052 169.576 33.4217 169.763 33.4511L169.765 35.8469ZM180.999 38.7551C181.005 39.1369 180.975 39.5184 180.907 39.8941H173.371C173.4 41.0108 173.765 41.8659 174.465 42.4549C175.1 42.9802 175.921 43.2441 176.93 43.2441C178.045 43.2441 179.063 43.0674 179.979 42.7105L180.372 44.4526C179.302 44.919 178.039 45.151 176.582 45.151C174.829 45.151 173.453 44.6351 172.451 43.6057C171.452 42.575 170.951 41.1898 170.951 39.4548C170.951 37.7516 171.417 36.3322 172.349 35.2003C173.324 33.9918 174.643 33.3875 176.302 33.3875C177.931 33.3875 179.165 33.9918 180.002 35.2003C180.666 36.1579 180.999 37.3452 180.999 38.7551ZM178.604 38.1038C178.622 37.3582 178.457 36.7162 178.116 36.1732C177.681 35.4735 177.012 35.1249 176.115 35.1249C175.294 35.1249 174.625 35.4653 174.116 36.1485C173.698 36.6915 173.449 37.344 173.373 38.1014L178.604 38.1038Z" fill="white"/>
<path d="M90.3416 23.7241C89.6429 23.7241 89.0385 23.6899 88.5354 23.6322V16.0537C89.239 15.9451 89.9501 15.8915 90.662 15.8935C93.5427 15.8935 94.8694 17.3105 94.8694 19.6204C94.8694 22.2847 93.3024 23.7241 90.3416 23.7241ZM90.7634 16.8653C90.3746 16.8653 90.0435 16.8888 89.769 16.9454V22.7064C89.9174 22.73 90.2025 22.7406 90.6031 22.7406C92.4906 22.7406 93.5651 21.6663 93.5651 19.6545C93.5651 17.8606 92.5931 16.8653 90.7634 16.8653ZM99.0037 23.7818C97.3801 23.7818 96.328 22.5698 96.328 20.9243C96.328 19.2093 97.4025 17.9866 99.0956 17.9866C100.696 17.9866 101.771 19.141 101.771 20.8336C101.771 22.5698 100.663 23.7818 99.0037 23.7818ZM99.0508 18.8889C98.1589 18.8889 97.5875 19.7228 97.5875 20.8889C97.5875 22.0327 98.1707 22.8666 99.039 22.8666C99.9074 22.8666 100.491 21.9749 100.491 20.8654C100.491 19.7346 99.9191 18.8889 99.0508 18.8889ZM111.03 18.1009L109.292 23.6558H108.159L107.44 21.2435C107.261 20.6534 107.112 20.0547 106.993 19.4496H106.969C106.879 20.055 106.707 20.6616 106.524 21.2435L105.758 23.6558H104.614L102.979 18.1009H104.248L104.877 20.7417C105.025 21.3707 105.15 21.9643 105.254 22.525H105.278C105.368 22.0574 105.517 21.4732 105.735 20.7535L106.524 18.1021H107.53L108.286 20.6969C108.468 21.3259 108.617 21.9431 108.732 22.5262H108.765C108.845 21.9549 108.971 21.3483 109.142 20.6969L109.817 18.1021L111.03 18.1009ZM117.427 23.6558H116.192V20.4661C116.192 19.4837 115.815 18.9914 115.072 18.9914C114.34 18.9914 113.837 19.6204 113.837 20.3518V23.6558H112.602V19.6887C112.602 19.1975 112.591 18.671 112.556 18.0997H113.643L113.701 18.9572H113.735C114.067 18.3636 114.741 17.9866 115.496 17.9866C116.663 17.9866 117.428 18.8783 117.428 20.3294L117.427 23.6558ZM120.832 23.6558H119.596V15.5519H120.832V23.6558ZM125.334 23.7818C123.712 23.7818 122.658 22.5698 122.658 20.9243C122.658 19.2093 123.733 17.9866 125.425 17.9866C127.026 17.9866 128.1 19.141 128.1 20.8336C128.102 22.5698 126.992 23.7818 125.334 23.7818ZM125.38 18.8889C124.488 18.8889 123.917 19.7228 123.917 20.8889C123.917 22.0327 124.501 22.8666 125.367 22.8666C126.237 22.8666 126.819 21.9749 126.819 20.8654C126.82 19.7346 126.249 18.8889 125.38 18.8889ZM132.969 23.6558L132.879 23.0162H132.846C132.469 23.5309 131.919 23.7818 131.221 23.7818C130.226 23.7818 129.519 23.0845 129.519 22.1469C129.519 20.7759 130.708 20.0668 132.766 20.0668V19.9643C132.766 19.2328 132.378 18.8665 131.613 18.8665C131.065 18.8665 130.584 19.0043 130.161 19.2788L129.91 18.4672C130.424 18.1468 131.065 17.9866 131.818 17.9866C133.269 17.9866 134.002 18.7523 134.002 20.2847V22.3307C134.002 22.8913 134.027 23.326 134.082 23.657L132.969 23.6558ZM132.799 20.8889C131.428 20.8889 130.74 21.2211 130.74 22.0091C130.74 22.5922 131.094 22.8772 131.587 22.8772C132.215 22.8772 132.799 22.3978 132.799 21.7464V20.8889ZM139.998 23.6558L139.94 22.7641H139.906C139.551 23.4379 138.955 23.7818 138.122 23.7818C136.783 23.7818 135.791 22.6039 135.791 20.9467C135.791 19.2093 136.819 17.9855 138.224 17.9855C138.967 17.9855 139.494 18.2363 139.791 18.7405H139.815V15.5519H141.051V22.1587C141.051 22.6958 141.064 23.1988 141.097 23.6558H139.998ZM139.815 20.3872C139.815 19.6098 139.3 18.9466 138.515 18.9466C137.599 18.9466 137.039 19.7582 137.039 20.9007C137.039 22.0209 137.62 22.7877 138.49 22.7877C139.266 22.7877 139.815 22.1128 139.815 21.313V20.3872ZM148.887 23.7818C147.265 23.7818 146.213 22.5698 146.213 20.9243C146.213 19.2093 147.287 17.9866 148.979 17.9866C150.58 17.9866 151.655 19.141 151.655 20.8336C151.656 22.5698 150.547 23.7818 148.887 23.7818ZM148.933 18.8889C148.043 18.8889 147.471 19.7228 147.471 20.8889C147.471 22.0327 148.054 22.8666 148.922 22.8666C149.791 22.8666 150.373 21.9749 150.373 20.8654C150.375 19.7346 149.804 18.8889 148.933 18.8889ZM158.295 23.6558H157.059V20.4661C157.059 19.4837 156.682 18.9914 155.939 18.9914C155.207 18.9914 154.705 19.6204 154.705 20.3518V23.6558H153.469V19.6887C153.469 19.1975 153.458 18.671 153.423 18.0997H154.51L154.567 18.9572H154.602C154.933 18.3636 155.608 17.9855 156.362 17.9855C157.528 17.9855 158.295 18.8771 158.295 20.3283V23.6558ZM166.603 19.0267H165.244V21.7241C165.244 22.4108 165.482 22.7535 165.963 22.7535C166.181 22.7535 166.364 22.73 166.511 22.6958L166.545 23.6334C166.306 23.7253 165.985 23.7712 165.587 23.7712C164.614 23.7712 164.032 23.2341 164.032 21.8277V19.0267H163.221V18.1009H164.032V17.0832L165.244 16.7169V18.0997H166.603V19.0267ZM173.139 23.6558H171.906V20.4896C171.906 19.4955 171.53 18.9925 170.785 18.9925C170.146 18.9925 169.549 19.4272 169.549 20.3071V23.6558H168.316V15.5519H169.549V18.8889H169.574C169.963 18.2835 170.526 17.9855 171.245 17.9855C172.421 17.9855 173.139 18.8995 173.139 20.3518V23.6558ZM179.836 21.1752H176.131C176.154 22.227 176.851 22.8207 177.882 22.8207C178.43 22.8207 178.934 22.7288 179.379 22.558L179.571 23.4155C179.046 23.644 178.427 23.7583 177.707 23.7583C175.969 23.7583 174.941 22.6605 174.941 20.9584C174.941 19.2552 175.994 17.9748 177.568 17.9748C178.988 17.9748 179.879 19.0267 179.879 20.6157C179.887 20.8032 179.872 20.991 179.836 21.1752ZM178.704 20.2953C178.704 19.4378 178.272 18.8323 177.482 18.8323C176.773 18.8323 176.212 19.4496 176.132 20.2953H178.704Z" fill="white"/>
</svg>
