<svg width="20" height="20" viewBox="0 0 20 20" fill="none" xmlns="http://www.w3.org/2000/svg">
<path opacity="0.4" d="M12.4183 3.48988C11.9422 3.40194 11.505 3.70573 11.4144 4.17041C11.3238 4.63509 11.6285 5.08878 12.0916 5.17972C13.4859 5.45153 14.5624 6.53079 14.8353 7.92983V7.93083C14.913 8.33355 15.2675 8.62635 15.6759 8.62635C15.7306 8.62635 15.7854 8.62136 15.8412 8.61136C16.3043 8.51843 16.609 8.06574 16.5184 7.60006C16.1111 5.51049 14.5027 3.8966 12.4183 3.48988Z" fill="#24D0F6"/>
<path opacity="0.4" d="M12.3561 0.00792976C12.133 -0.0240483 11.9089 0.0419064 11.7307 0.183809C11.5474 0.32771 11.4329 0.535567 11.408 0.768408C11.3552 1.23908 11.6948 1.66479 12.1649 1.71776C15.4065 2.07951 17.9262 4.60477 18.2907 7.85654C18.3395 8.29224 18.705 8.62101 19.1412 8.62101C19.174 8.62101 19.2059 8.61902 19.2388 8.61502C19.4668 8.59004 19.67 8.47711 19.8134 8.29724C19.9558 8.11736 20.0206 7.89351 19.9947 7.66467C19.5405 3.60746 16.4005 0.45862 12.3561 0.00792976Z" fill="#24D0F6"/>
<path d="M15.6049 12.6731C14.9566 12.5352 14.4437 12.835 13.9896 13.0968C13.5245 13.3666 12.6391 14.0811 12.1332 13.8972C9.53789 12.834 7.09693 10.5705 6.04028 7.9763C5.85405 7.45965 6.56811 6.57326 6.83601 6.10558C7.09793 5.65189 7.39272 5.13525 7.25827 4.48569C7.13677 3.9011 5.56524 1.90946 5.00952 1.36484C4.64204 1.00508 4.26758 0.80722 3.88216 0.774243C2.43313 0.713285 0.814786 2.63896 0.530954 3.09965C-0.181116 4.08197 -0.176136 5.38907 0.542905 6.97399C2.27577 11.2311 8.8298 17.6556 13.1201 19.4464C13.9109 19.8152 14.6359 20 15.2862 20C15.9226 20 16.4893 19.8232 16.9763 19.4724C17.3428 19.2615 19.3565 17.5697 19.3027 16.0877C19.2718 15.71 19.0736 15.3322 18.7171 14.9665C18.1734 14.4079 16.1875 12.796 15.6049 12.6731Z" fill="white"/>
</svg>
