<svg width="214" height="473" viewBox="0 0 214 473" fill="none" xmlns="http://www.w3.org/2000/svg">
<circle cx="210.24" cy="468.636" r="3.52358" transform="rotate(180 210.24 468.636)" fill="#24D0F6"/>
<circle cx="158.561" cy="468.636" r="3.52358" transform="rotate(180 158.561 468.636)" fill="#24D0F6"/>
<circle cx="106.882" cy="468.636" r="3.52358" transform="rotate(180 106.882 468.636)" fill="#24D0F6"/>
<circle cx="55.203" cy="468.636" r="3.52358" transform="rotate(180 55.203 468.636)" fill="#24D0F6"/>
<circle cx="3.52378" cy="468.636" r="3.52358" transform="rotate(180 3.52378 468.636)" fill="#24D0F6"/>
<circle cx="210.241" cy="416.957" r="3.52358" transform="rotate(180 210.241 416.957)" fill="#24D0F6"/>
<circle cx="158.561" cy="416.957" r="3.52358" transform="rotate(180 158.561 416.957)" fill="#24D0F6"/>
<circle cx="106.882" cy="416.957" r="3.52358" transform="rotate(180 106.882 416.957)" fill="#24D0F6"/>
<circle cx="55.203" cy="416.957" r="3.52358" transform="rotate(180 55.203 416.957)" fill="#24D0F6"/>
<circle cx="3.52378" cy="416.957" r="3.52358" transform="rotate(180 3.52378 416.957)" fill="#24D0F6"/>
<circle cx="210.241" cy="365.278" r="3.52358" transform="rotate(180 210.241 365.278)" fill="#24D0F6"/>
<circle cx="158.561" cy="365.278" r="3.52358" transform="rotate(180 158.561 365.278)" fill="#24D0F6"/>
<circle cx="106.882" cy="365.278" r="3.52358" transform="rotate(180 106.882 365.278)" fill="#24D0F6"/>
<circle cx="55.203" cy="365.278" r="3.52358" transform="rotate(180 55.203 365.278)" fill="#24D0F6"/>
<circle cx="3.52378" cy="365.278" r="3.52358" transform="rotate(180 3.52378 365.278)" fill="#24D0F6"/>
<circle cx="210.241" cy="313.599" r="3.52358" transform="rotate(180 210.241 313.599)" fill="#24D0F6"/>
<circle cx="158.561" cy="313.599" r="3.52358" transform="rotate(180 158.561 313.599)" fill="#24D0F6"/>
<circle cx="106.882" cy="313.599" r="3.52358" transform="rotate(180 106.882 313.599)" fill="#24D0F6"/>
<circle cx="55.203" cy="313.599" r="3.52358" transform="rotate(180 55.203 313.599)" fill="#24D0F6"/>
<circle cx="3.52378" cy="313.599" r="3.52358" transform="rotate(180 3.52378 313.599)" fill="#24D0F6"/>
<circle cx="210.241" cy="261.92" r="3.52358" transform="rotate(180 210.241 261.92)" fill="#24D0F6"/>
<circle cx="158.561" cy="261.92" r="3.52358" transform="rotate(180 158.561 261.92)" fill="#24D0F6"/>
<circle cx="106.882" cy="261.92" r="3.52358" transform="rotate(180 106.882 261.92)" fill="#24D0F6"/>
<circle cx="55.203" cy="261.92" r="3.52358" transform="rotate(180 55.203 261.92)" fill="#24D0F6"/>
<circle cx="3.52378" cy="261.92" r="3.52358" transform="rotate(180 3.52378 261.92)" fill="#24D0F6"/>
<circle cx="210.241" cy="210.24" r="3.52358" transform="rotate(180 210.241 210.24)" fill="#24D0F6"/>
<circle cx="158.561" cy="210.24" r="3.52358" transform="rotate(180 158.561 210.24)" fill="#24D0F6"/>
<circle cx="106.882" cy="210.24" r="3.52358" transform="rotate(180 106.882 210.24)" fill="#24D0F6"/>
<circle cx="55.203" cy="210.24" r="3.52358" transform="rotate(180 55.203 210.24)" fill="#24D0F6"/>
<circle cx="3.52378" cy="210.24" r="3.52358" transform="rotate(180 3.52378 210.24)" fill="#24D0F6"/>
<circle cx="210.241" cy="158.561" r="3.52358" transform="rotate(180 210.241 158.561)" fill="#24D0F6"/>
<circle cx="158.561" cy="158.561" r="3.52358" transform="rotate(180 158.561 158.561)" fill="#24D0F6"/>
<circle cx="106.882" cy="158.561" r="3.52358" transform="rotate(180 106.882 158.561)" fill="#24D0F6"/>
<circle cx="55.203" cy="158.561" r="3.52358" transform="rotate(180 55.203 158.561)" fill="#24D0F6"/>
<circle cx="3.52378" cy="158.561" r="3.52358" transform="rotate(180 3.52378 158.561)" fill="#24D0F6"/>
<circle cx="210.241" cy="106.882" r="3.52358" transform="rotate(180 210.241 106.882)" fill="#24D0F6"/>
<circle cx="158.561" cy="106.882" r="3.52358" transform="rotate(180 158.561 106.882)" fill="#24D0F6"/>
<circle cx="106.882" cy="106.882" r="3.52358" transform="rotate(180 106.882 106.882)" fill="#24D0F6"/>
<circle cx="55.203" cy="106.882" r="3.52358" transform="rotate(180 55.203 106.882)" fill="#24D0F6"/>
<circle cx="3.52378" cy="106.882" r="3.52358" transform="rotate(180 3.52378 106.882)" fill="#24D0F6"/>
<circle cx="210.241" cy="55.2029" r="3.52358" transform="rotate(180 210.241 55.2029)" fill="#24D0F6"/>
<circle cx="158.561" cy="55.2029" r="3.52358" transform="rotate(180 158.561 55.2029)" fill="#24D0F6"/>
<circle cx="106.882" cy="55.2029" r="3.52358" transform="rotate(180 106.882 55.2029)" fill="#24D0F6"/>
<circle cx="55.203" cy="55.2029" r="3.52358" transform="rotate(180 55.203 55.2029)" fill="#24D0F6"/>
<circle cx="3.52378" cy="55.2029" r="3.52358" transform="rotate(180 3.52378 55.2029)" fill="#24D0F6"/>
<circle cx="210.241" cy="3.52366" r="3.52358" transform="rotate(180 210.241 3.52366)" fill="#24D0F6"/>
<circle cx="158.561" cy="3.52366" r="3.52358" transform="rotate(180 158.561 3.52366)" fill="#24D0F6"/>
<circle cx="106.882" cy="3.52366" r="3.52358" transform="rotate(180 106.882 3.52366)" fill="#24D0F6"/>
<circle cx="55.203" cy="3.52366" r="3.52358" transform="rotate(180 55.203 3.52366)" fill="#24D0F6"/>
<circle cx="3.52378" cy="3.52366" r="3.52358" transform="rotate(180 3.52378 3.52366)" fill="#24D0F6"/>
</svg>
