<svg width="460" height="638" viewBox="0 0 460 638" fill="none" xmlns="http://www.w3.org/2000/svg">
<rect y="109" width="460" height="529" rx="12" fill="#4D1C73" fill-opacity="0.5"/>
<mask id="mask0" mask-type="alpha" maskUnits="userSpaceOnUse" x="0" y="109" width="460" height="529">
<rect y="109" width="460" height="529" rx="12" fill="#2196F3"/>
</mask>
<g mask="url(#mask0)">
<path d="M546.666 320.121C502.537 303.216 454.291 311.741 415.393 338.674C401.2 267.66 356.054 207.546 288.818 181.776C178.665 139.536 50.9764 205.463 3.55336 329.034C-8.65359 360.86 -14.3211 393.46 -14.1758 424.946C-19.8433 421.41 -25.9468 418.31 -32.3894 415.839C-92.5038 392.782 -162.306 428.821 -188.173 496.347C-214.089 563.873 -187.156 639.779 -126.073 660.366C-93.4726 671.362 -41.8352 671.604 -41.8352 671.604C-41.8352 671.604 460.152 634.208 475.653 634.354C537.511 634.886 598.449 592.55 624.316 525.121C656.626 440.738 621.894 348.943 546.666 320.121Z" fill="#6B3976"/>
<g style="mix-blend-mode:multiply" opacity="0.4">
<path d="M662.588 388.121C618.458 371.216 570.212 379.741 531.314 406.674C517.121 335.66 471.975 275.546 404.74 249.776C294.587 207.536 166.898 273.463 119.475 397.034C107.268 428.86 101.6 461.46 101.746 492.946C96.078 489.41 89.9746 486.31 83.532 483.839C23.3691 460.782 -46.4334 496.773 -72.3005 564.299C-98.2161 631.824 -70.4114 705.26 -10.2 728.318C2.53978 733.21 74.0377 739.556 74.0377 739.556C74.0377 739.556 576.025 702.16 591.526 702.305C653.384 702.838 714.322 660.501 740.189 593.072C772.547 508.738 737.815 416.943 662.588 388.121Z" fill="#311944"/>
</g>
<path d="M335.66 277.238C355.356 245.656 397.893 189.017 471.196 162.213C502.429 150.792 551.841 132.729 589.717 159.067C625.727 184.239 626.543 232.603 626.543 237.381C626.66 278.17 601.604 316.512 562.097 337.139C555.221 329.448 548.345 321.756 541.469 313.948C559.3 279.569 560.349 249.735 550.326 243.674C540.654 237.848 516.413 251.599 494.97 278.986C441.828 278.52 388.802 277.937 335.66 277.238Z" fill="#24D0F6"/>
<path opacity="0.3" d="M587.502 275.49C594.261 260.34 607.197 259.99 613.724 243.325C621.415 223.863 614.656 197.059 600.555 190.766C590.066 186.104 584.239 198.341 566.991 195.311C544.849 191.348 539.371 174.8 521.657 173.518C510.236 172.702 506.74 179.228 478.654 197.525C445.557 219.085 422.832 233.536 407.099 226.077C403.253 224.212 397.543 220.017 393.347 208.596C365.611 232.836 346.848 259.058 335.544 277.238C388.686 277.821 441.828 278.52 494.853 279.103C516.297 251.716 540.537 237.964 550.21 243.791C560.115 249.851 559.183 279.569 541.353 314.064C548.228 321.756 555.104 329.448 561.98 337.256C572.352 331.778 581.792 325.136 589.95 317.561C582.608 299.147 582.957 285.629 587.502 275.49Z" fill="url(#paint0_linear)"/>
<path d="M283.101 302.993C351.277 244.723 426.212 249.851 426.212 249.851C479.004 253.464 515.598 278.986 533.079 291.572C614.656 349.958 635.167 442.025 640.412 470.577C639.596 471.975 637.382 475.472 632.953 477.569C627.709 480.133 622.814 479.201 621.416 478.851C611.626 460.205 576.198 398.672 499.399 365.808C434.836 338.188 377.032 346.229 354.89 350.541C341.954 355.436 322.259 360.33 300.116 355.552C292.191 353.804 266.786 348.327 263.756 333.992C261.891 325.835 267.602 316.278 283.101 302.993Z" fill="#24D0F6"/>
</g>
<path d="M105.612 144.849C112.138 132.03 140.807 79.004 204.67 56.0457C259.211 36.4671 306.06 50.918 325.638 56.978C347.315 63.6208 387.754 76.0905 412.344 113.966C414.208 116.763 445.557 166.059 425.979 187.269C413.043 201.371 380.412 200.089 349.879 179.694C351.743 186.92 355.472 197.292 363.397 207.314C374.119 220.716 382.743 221.182 384.141 229.107C386.122 239.712 371.788 247.287 346.732 271.411C325.056 292.155 328.202 293.786 308.507 312.2C282.402 336.556 269.816 349.259 260.26 349.609C222.268 351.007 189.753 220.833 184.159 198.107C157.938 180.277 131.833 162.563 105.612 144.849Z" fill="url(#paint1_linear)"/>
<path d="M361.882 142.285C365.728 160.115 373.652 171.653 378.664 177.829C385.539 186.22 392.881 195.31 403.953 195.544C412.81 195.777 422.949 190.183 425.512 182.841C429.941 169.905 411.062 149.044 378.664 130.281C373.07 134.244 367.476 138.206 361.882 142.285Z" fill="url(#paint2_linear)"/>
<path opacity="0.3" d="M409.896 175.033C403.486 171.537 405.467 163.612 398.592 153.24C383.208 130.398 342.653 123.872 334.262 135.176C329.018 142.285 336.36 156.503 342.886 169.089C345.217 173.518 347.664 177.48 350.111 180.976C349.995 180.51 349.878 180.044 349.762 179.694C380.411 200.089 412.926 201.371 425.862 187.269C430.174 182.608 431.922 176.664 432.272 170.138C423.415 175.615 415.49 178.063 409.896 175.033Z" fill="url(#paint3_linear)"/>
<path d="M293.706 106.857L381.81 104.643C385.073 104.526 387.521 107.673 386.705 110.936L374.701 154.055C374.119 156.037 372.487 157.435 370.389 157.668L289.861 164.777C286.831 165.01 284.267 162.446 284.5 159.416L288.928 111.285C289.161 108.838 291.259 106.973 293.706 106.857Z" fill="white"/>
<path d="M376.216 148.462C376.216 148.462 382.043 147.063 384.258 141.469C385.423 138.439 385.889 133.778 386.006 130.048C386.122 126.669 383.791 123.755 380.528 123.173L368.758 121.191C366.077 120.725 363.863 123.289 364.795 125.853C365.378 127.601 366.66 129.699 368.874 131.563C374.818 136.575 377.615 139.838 377.615 139.838L376.216 148.462Z" fill="url(#paint4_linear)"/>
<path opacity="0.3" d="M261.425 277.354C261.774 258.242 295.687 251.832 303.146 218.502C306.292 204.051 304.661 183.773 294.056 177.713C280.537 170.021 264.105 191.931 245.109 184.938C228.444 178.762 231.707 158.251 217.955 152.307C201.873 145.548 181.362 167.574 162.599 183.307C169.825 188.201 176.933 192.98 184.159 197.874C189.753 220.599 222.267 350.774 260.259 349.376C269.349 349.026 281.12 337.605 304.661 315.579C269.932 300.079 261.308 287.144 261.425 277.354Z" fill="url(#paint5_linear)"/>
<path d="M126.006 122.473C110.39 121.308 73.7963 194.728 102.931 249.152C106.893 256.494 115.401 272.576 133.348 280.618C175.535 299.613 237.651 259.757 263.756 211.743C275.759 189.833 278.789 168.74 279.605 155.571C276.225 151.375 272.846 147.18 269.466 142.868C259.677 153.356 240.448 170.488 211.546 178.529C196.512 182.724 177.516 188.085 160.968 179.461C132.416 164.894 137.66 123.289 126.006 122.473Z" fill="url(#paint6_linear)"/>
<path d="M267.718 27.4935C267.718 27.4935 253.966 48.8203 248.955 50.3353C243.944 51.9668 215.741 56.745 215.625 58.1434C215.625 59.6584 231.241 63.0381 250.237 64.32C269.233 65.602 284.966 57.7938 287.996 55.6961C291.026 53.5984 280.654 49.1699 275.992 49.7526C271.214 50.2187 275.41 35.4182 275.41 35.4182L267.718 27.4935Z" fill="url(#paint7_linear)"/>
<path d="M362.115 147.296C356.055 144.033 350.927 147.879 344.051 144.266C337.991 141.12 339.157 136.691 333.796 130.981C323.424 119.909 310.022 126.436 300.582 117.113C298.601 115.131 296.387 111.985 295.105 106.857H293.823C291.375 106.974 289.278 108.838 289.045 111.286L284.616 159.416C284.383 162.446 286.947 165.01 289.977 164.777L369.807 157.668C367.592 151.608 364.679 148.695 362.115 147.296Z" fill="url(#paint8_linear)"/>
<path d="M271.564 145.665C272.379 142.984 273.894 139.139 276.925 135.409C283.451 127.018 294.872 121.541 297.669 124.221C298.951 125.387 299.067 128.883 293.939 138.556C291.142 139.255 287.53 140.537 284.5 143.567C280.188 147.879 279.838 152.774 277.507 153.007C276.225 153.123 274.244 151.841 271.564 145.665Z" fill="url(#paint9_linear)"/>
<path d="M294.056 33.5536C300.349 30.6401 304.545 20.3847 301.515 12.5765C299.184 6.86607 293.706 4.41874 289.628 2.78718C287.763 1.97141 274.477 -3.38941 266.087 3.36988C263.406 5.46759 261.308 9.3134 260.609 13.0427C260.26 14.9073 260.26 17.4712 260.609 22.5989C260.842 27.1439 260.842 26.9109 260.959 28.3093C261.192 31.5725 262.124 37.1664 265.271 45.091C266.553 43.6926 268.301 41.9445 270.515 40.1964C271.331 39.4972 274.71 37.0498 278.44 35.5348C286.015 32.3882 289.161 35.8844 294.056 33.5536Z" fill="#2D2B3E"/>
<path d="M260.376 36.234C260.376 36.234 260.959 48.8202 272.846 54.2976C283.451 59.1923 297.552 37.0497 293.706 28.6589C292.424 25.8619 288.462 22.7154 284.267 21.7831C281.819 21.2004 280.654 21.6665 276.692 20.7342C273.079 19.8019 272.38 18.9861 270.981 19.2192C269.233 19.5688 267.019 21.55 265.271 29.3581C264.455 26.3281 262.474 24.2304 260.376 24.1138C260.026 24.1138 259.094 24.2304 258.278 24.6965C255.365 26.6777 255.948 31.3393 260.376 36.234Z" fill="url(#paint10_linear)"/>
<path d="M266.553 22.4822C266.553 22.4822 265.504 32.7377 266.553 36.1173C267.602 39.3804 272.03 44.042 278.789 44.6247C285.549 45.3239 290.094 44.6247 290.094 44.6247C290.094 44.6247 284.966 56.5117 282.868 56.8613C280.77 57.3275 267.835 56.7448 265.504 54.5306C263.173 52.3163 260.259 42.7601 260.959 38.5646C261.658 34.3692 265.504 24.813 265.504 24.813L266.553 22.4822Z" fill="#2D2B3E"/>
<defs>
<linearGradient id="paint0_linear" x1="532.043" y1="107.392" x2="489.474" y2="224.23" gradientUnits="userSpaceOnUse">
<stop stop-color="#444B8C"/>
<stop offset="0.9964" stop-color="#3E4177"/>
</linearGradient>
<linearGradient id="paint1_linear" x1="295.969" y1="59.5482" x2="219.889" y2="340.321" gradientUnits="userSpaceOnUse">
<stop stop-color="#893976"/>
<stop offset="1" stop-color="#311944"/>
</linearGradient>
<linearGradient id="paint2_linear" x1="413.74" y1="88.8666" x2="333.929" y2="383.408" gradientUnits="userSpaceOnUse">
<stop stop-color="#893976"/>
<stop offset="1" stop-color="#311944"/>
</linearGradient>
<linearGradient id="paint3_linear" x1="400.989" y1="88.0052" x2="324.908" y2="368.778" gradientUnits="userSpaceOnUse">
<stop stop-color="#893976"/>
<stop offset="1" stop-color="#311944"/>
</linearGradient>
<linearGradient id="paint4_linear" x1="375.315" y1="123.94" x2="374.711" y2="224.778" gradientUnits="userSpaceOnUse">
<stop stop-color="#FFC444"/>
<stop offset="0.9964" stop-color="#F36F56"/>
</linearGradient>
<linearGradient id="paint5_linear" x1="285.803" y1="56.793" x2="209.723" y2="337.566" gradientUnits="userSpaceOnUse">
<stop stop-color="#893976"/>
<stop offset="1" stop-color="#311944"/>
</linearGradient>
<linearGradient id="paint6_linear" x1="228.149" y1="125.392" x2="140.294" y2="232.267" gradientUnits="userSpaceOnUse">
<stop stop-color="#893976"/>
<stop offset="1" stop-color="#311944"/>
</linearGradient>
<linearGradient id="paint7_linear" x1="215.568" y1="46.0317" x2="288.507" y2="46.0317" gradientUnits="userSpaceOnUse">
<stop stop-color="#FFC444"/>
<stop offset="0.9964" stop-color="#F36F56"/>
</linearGradient>
<linearGradient id="paint8_linear" x1="284.481" y1="135.819" x2="369.638" y2="135.819" gradientUnits="userSpaceOnUse">
<stop offset="0.494" stop-color="#EBEFF2"/>
<stop offset="1" stop-color="white"/>
</linearGradient>
<linearGradient id="paint9_linear" x1="285.069" y1="123.38" x2="284.465" y2="224.216" gradientUnits="userSpaceOnUse">
<stop stop-color="#FFC444"/>
<stop offset="0.9964" stop-color="#F36F56"/>
</linearGradient>
<linearGradient id="paint10_linear" x1="278.431" y1="25.2922" x2="231.016" y2="123.847" gradientUnits="userSpaceOnUse">
<stop stop-color="#FFC444"/>
<stop offset="0.9964" stop-color="#F36F56"/>
</linearGradient>
</defs>
</svg>
