<svg width="26" height="26" viewBox="0 0 26 26" fill="none" xmlns="http://www.w3.org/2000/svg">
<circle cx="13.0824" cy="12.9176" r="12.9176" fill="white"/>
<path d="M13.0838 9.97352C11.4546 9.97352 10.1405 11.2879 10.1405 12.9174C10.1405 14.547 11.4546 15.8614 13.0838 15.8614C14.7129 15.8614 16.027 14.547 16.027 12.9174C16.027 11.2879 14.7129 9.97352 13.0838 9.97352ZM13.0838 14.8314C12.031 14.8314 11.1703 13.9731 11.1703 12.9174C11.1703 11.8618 12.0284 11.0035 13.0838 11.0035C14.1391 11.0035 14.9973 11.8618 14.9973 12.9174C14.9973 13.9731 14.1366 14.8314 13.0838 14.8314ZM16.8339 9.85309C16.8339 10.2349 16.5266 10.5398 16.1474 10.5398C15.7658 10.5398 15.4609 10.2323 15.4609 9.85309C15.4609 9.47389 15.7683 9.16643 16.1474 9.16643C16.5266 9.16643 16.8339 9.47389 16.8339 9.85309ZM18.7833 10.55C18.7398 9.63019 18.5297 8.81542 17.856 8.14413C17.1849 7.47284 16.3703 7.26274 15.4507 7.21662C14.5029 7.16282 11.6621 7.16282 10.7143 7.21662C9.79724 7.26018 8.98265 7.47028 8.30895 8.14157C7.63525 8.81285 7.42776 9.62762 7.38165 10.5474C7.32786 11.4954 7.32786 14.3369 7.38165 15.2849C7.4252 16.2047 7.63525 17.0195 8.30895 17.6908C8.98265 18.3621 9.79468 18.5721 10.7143 18.6183C11.6621 18.6721 14.5029 18.6721 15.4507 18.6183C16.3703 18.5747 17.1849 18.3646 17.856 17.6908C18.5272 17.0195 18.7372 16.2047 18.7833 15.2849C18.8371 14.3369 18.8371 11.498 18.7833 10.55ZM17.5589 16.3021C17.3591 16.8043 16.9723 17.1911 16.4676 17.3936C15.712 17.6933 13.9188 17.6241 13.0838 17.6241C12.2487 17.6241 10.453 17.6908 9.6999 17.3936C9.19783 17.1937 8.81102 16.8068 8.60866 16.3021C8.30895 15.5462 8.37811 13.7527 8.37811 12.9174C8.37811 12.0822 8.31151 10.2861 8.60866 9.53282C8.80846 9.03064 9.19526 8.64375 9.6999 8.44134C10.4556 8.14157 12.2487 8.21074 13.0838 8.21074C13.9188 8.21074 15.7145 8.14413 16.4676 8.44134C16.9697 8.64119 17.3565 9.02808 17.5589 9.53282C17.8586 10.2887 17.7894 12.0822 17.7894 12.9174C17.7894 13.7527 17.8586 15.5488 17.5589 16.3021Z" fill="#9B9BCA"/>
</svg>
