<svg width="23" height="23" viewBox="0 0 23 23" fill="none" xmlns="http://www.w3.org/2000/svg">
<path d="M16.7274 1.46094H6.72425C3.96195 1.46094 1.72266 3.67518 1.72266 6.40659V16.2979C1.72266 19.0293 3.96195 21.2435 6.72425 21.2435H16.7274C19.4897 21.2435 21.729 19.0293 21.729 16.2979V6.40659C21.729 3.67518 19.4897 1.46094 16.7274 1.46094Z" stroke="#F2F2F2" stroke-width="2" stroke-linecap="round" stroke-linejoin="round"/>
<path d="M15.7271 10.729C15.8505 11.5522 15.7083 12.3929 15.3207 13.1316C14.9331 13.8702 14.3198 14.4693 13.568 14.8434C12.8163 15.2176 11.9643 15.3478 11.1334 15.2156C10.3025 15.0834 9.53488 14.6954 8.93977 14.107C8.34466 13.5185 7.95235 12.7595 7.81864 11.9379C7.68494 11.1162 7.81664 10.2738 8.19502 9.5305C8.5734 8.78715 9.1792 8.1807 9.92623 7.79741C10.6733 7.41412 11.5235 7.27351 12.356 7.39558C13.2052 7.5201 13.9914 7.91138 14.5984 8.51163C15.2055 9.11187 15.6012 9.88926 15.7271 10.729Z" stroke="#F2F2F2" stroke-width="2" stroke-linecap="round" stroke-linejoin="round"/>
<path d="M17.2275 5.91211H17.2375" stroke="#F2F2F2" stroke-width="2" stroke-linecap="round" stroke-linejoin="round"/>
</svg>
