<svg width="556" height="485" viewBox="0 0 556 485" fill="none" xmlns="http://www.w3.org/2000/svg">
<path d="M273.138 24.5733C262.204 25.1667 253.494 33.9561 253.031 44.8965C250.325 108.147 241.819 318.573 244.525 396.38C244.914 407.747 253.883 416.944 265.225 417.612C311.981 420.356 431.883 426.383 500.451 420.894C512.793 419.911 522.486 409.916 523.153 397.53C526.637 333 536.607 137.055 534.013 60.1203C533.605 47.8448 524.098 37.8316 511.867 36.719C461.293 32.2131 331.403 21.4025 273.138 24.5733Z" fill="url(#paint0_linear)"/>
<mask id="mask0" mask-type="alpha" maskUnits="userSpaceOnUse" x="0" y="78" width="556" height="403">
<rect y="78" width="556" height="403" fill="#32114B"/>
</mask>
<g mask="url(#mask0)">
<path d="M273.138 35.5733C262.204 36.1667 253.494 44.9561 253.031 55.8965C250.325 119.147 241.819 329.573 244.525 407.38C244.914 418.747 253.883 427.944 265.225 428.612C311.981 431.356 431.883 437.383 500.451 431.894C512.793 430.911 522.486 420.916 523.153 408.53C526.637 344 536.607 148.055 534.013 71.1203C533.605 58.8448 524.098 48.8316 511.867 47.719C461.293 43.2131 331.403 32.4025 273.138 35.5733Z" fill="url(#paint1_linear)"/>
<path d="M532.077 264.066C523.405 254.683 511.248 249.305 498.479 249.213L331.061 248.026C317.44 247.933 304.468 253.848 295.609 264.214C286.751 274.58 282.915 288.209 285.139 301.671L318.663 505.719H529.427L544.234 298.667C545.161 285.909 540.75 273.448 532.077 264.066Z" fill="url(#paint2_linear)"/>
<path d="M550.591 502.789C550.591 516.103 539.805 526.913 526.481 526.913H316.439C303.133 526.913 292.329 516.121 292.329 502.789V500.897C292.329 487.584 303.115 476.773 316.439 476.773H526.481C539.787 476.773 550.591 487.565 550.591 500.897V502.789Z" fill="url(#paint3_linear)"/>
<path d="M247.704 581.004C266.347 542.286 292.107 481.594 274.724 453.743L342.162 442.32L279.338 405.382L250.206 414.246C246.481 415.377 243.609 418.307 242.571 422.053C238.901 435.218 229.395 516.622 222.223 580.985H247.704V581.004Z" fill="url(#paint4_linear)"/>
<path d="M287.77 581.003C303.244 541.173 321.183 484.691 303.133 459.695L371.553 462.791L304.449 411.13L275.984 421.96C272.352 423.35 269.683 426.466 268.905 430.267C265.05 448.847 255.191 509.334 257.656 580.985H287.77V581.003Z" fill="url(#paint5_linear)"/>
<path d="M483.505 462.05C481.244 443.414 453.798 402.564 453.798 402.564C453.798 402.564 347.332 399.096 334.897 403.917C325.242 407.663 285.861 405.549 268.719 404.418C268.071 404.381 267.478 404.807 267.33 405.438C267.181 406.068 267.496 406.736 268.108 406.995C309.99 425.223 314.012 435.607 319.553 470.95C319.553 470.95 361.694 496.595 447.201 489.512C475.907 487.12 485.766 480.686 483.505 462.05Z" fill="url(#paint6_linear)"/>
<path d="M58.5509 445.75L49.4331 487.732C48.4509 492.256 51.8238 496.503 56.1232 496.169C56.1973 496.169 56.2714 496.15 56.3456 496.15C59.0883 495.928 61.4048 493.851 62.0719 490.977L72.1719 448.235L58.5509 445.75Z" fill="url(#paint7_linear)"/>
<path d="M101.49 448.235C101.916 448.94 105.789 477.7 107.494 490.384C107.939 493.777 110.644 496.28 113.813 496.28H114.165C118.279 496.28 121.319 492.164 120.392 487.843L111.849 448.235H101.49Z" fill="url(#paint8_linear)"/>
<path d="M174.987 445.75L165.87 487.732C164.887 492.256 168.26 496.503 172.56 496.169C172.634 496.169 172.708 496.15 172.782 496.15C175.525 495.928 177.841 493.851 178.508 490.977L188.608 448.235L174.987 445.75Z" fill="url(#paint9_linear)"/>
<path d="M217.944 448.235C218.371 448.94 222.244 477.7 223.949 490.384C224.393 493.777 227.099 496.28 230.268 496.28H230.62C234.734 496.28 237.774 492.164 236.847 487.843L228.304 448.235H217.944Z" fill="url(#paint10_linear)"/>
<path d="M159.921 346.119C159.921 346.119 161.107 370.725 186.051 370.707C210.995 370.707 257.621 391.271 232.863 435.292L159.921 425.26V346.119Z" fill="url(#paint11_linear)"/>
<path d="M46.8943 412.836C46.8943 412.836 41.9833 370.447 31.8463 357.003C21.7093 343.56 -9.16496 281.756 35.5156 251.957C80.2148 222.158 144.15 238.884 155.14 276.768C166.129 314.651 176.841 402.489 182.289 418.622C187.737 434.773 80.7893 433.679 80.7893 433.679L46.8943 412.836Z" fill="url(#paint12_linear)"/>
<path d="M107.568 420.031C108.328 419.141 144.336 405.419 178.471 408.33C212.626 411.242 230.342 416.749 236.236 432.844C242.129 448.94 215.091 457.803 159.902 455.745C104.751 453.687 95.9671 433.512 107.568 420.031Z" fill="url(#paint13_linear)"/>
<path d="M150.692 294.031C150.562 294.031 150.47 293.938 150.433 293.827C145.651 269.35 128.12 256.926 114.258 250.807C99.2101 244.169 85.1444 243.334 84.9961 243.334C84.8479 243.334 84.7367 243.204 84.7552 243.056C84.7552 242.908 84.8849 242.796 85.0332 242.815C85.1814 242.815 99.3399 243.668 114.48 250.343C128.454 256.5 146.133 269.035 150.97 293.734C150.988 293.883 150.914 294.012 150.766 294.031C150.71 294.031 150.692 294.031 150.692 294.031Z" fill="white"/>
<path d="M211.495 281.997L210.198 279.883C209.457 278.659 208.178 277.843 206.77 277.676L192.926 275.952C192.926 275.952 192.315 274.394 194.853 272.558C197.392 270.723 195.891 267.719 195.891 267.719C195.891 267.719 192.481 270.519 187.57 274.821C184.754 277.287 183.679 280.588 183.29 282.98L181.066 287.838C182.307 289.303 184.216 290.452 187.126 290.082L187.626 286.354C195.947 286.633 203.86 285.001 211.495 281.997Z" fill="url(#paint14_linear)"/>
<path d="M181.047 287.467C179.565 290.73 178.082 294.012 176.581 297.276C174.672 301.485 173.06 306.863 169.984 310.367C166.351 314.503 160.403 313.779 156.678 310.163C152.601 306.195 148.246 302.542 144.02 298.722C142.908 297.721 141.759 296.738 140.648 295.737L140.333 321.438C150.618 326.129 161.941 334.065 173.727 330.023C176.97 328.91 180.232 326.852 182.067 323.885C183.178 322.105 184.105 319.658 184.327 317.562L187.163 289.729C183.79 290.174 182.474 289.154 181.047 287.467Z" fill="url(#paint15_linear)"/>
<path d="M178.193 476.05L175.729 484.468C175.729 484.468 181.214 486.972 186.032 484.969L186.978 477.682L178.193 476.05Z" fill="url(#paint16_linear)"/>
<path d="M252.877 488.289C244.945 494.667 240.887 496.818 238.811 497.467C240.164 498.524 242.147 498.617 243.611 497.43L271.706 474.845C272.651 474.085 272.521 472.694 271.65 472.063C268.648 474.901 262.199 480.797 252.877 488.289Z" fill="url(#paint17_linear)"/>
<path d="M271.65 472.063C271.465 471.933 271.279 471.822 271.038 471.767C266.72 470.765 258.993 469.949 253.211 474.733C244.742 481.743 242.499 485.062 235.049 489.42L237.644 495.873C237.903 496.522 238.329 497.059 238.83 497.449C240.905 496.8 244.964 494.667 252.896 488.27C262.199 480.797 268.648 474.9 271.65 472.063Z" fill="url(#paint18_linear)"/>
<path d="M125.303 380.183C125.303 380.183 186.292 385.171 198.801 391.049C211.31 396.946 188.59 479.536 188.59 479.536C188.59 479.536 185.18 481.168 177.6 478.813C177.6 478.813 185.365 417.862 179.583 404.641L113.554 393.849L125.303 380.183Z" fill="url(#paint19_linear)"/>
<path d="M228.971 477.83C229.545 478.35 235.031 489.438 235.031 489.438C235.031 489.438 241.146 488.122 242.388 484.246L236.884 474.233L228.971 477.83Z" fill="url(#paint20_linear)"/>
<path d="M88.5727 379.663C88.5727 379.663 86.5898 384.447 86.6639 390.807C86.7751 399.597 94.2435 410.964 103.028 411.409L174.709 410.463C176.229 410.537 177.526 411.594 177.897 413.059C179.583 419.623 187.867 439.743 228.341 479.925C229.416 481.001 231.102 481.168 232.381 480.37L238.144 476.736C238.756 476.347 238.941 475.568 238.589 474.937L196.614 403.213C194.409 399.578 190.869 396.945 186.737 395.888L125.285 380.164L88.5727 379.663Z" fill="url(#paint21_linear)"/>
<path d="M88.3688 379.459C88.3688 379.459 87.6461 343.708 94.7994 310.053C97.4309 297.629 104.306 286.503 114.277 278.641L117.612 276.008L134.328 282.795L142.908 297.648C147.634 307.104 146.467 327.65 142.908 337.608C136.941 354.259 132.178 371.505 130.14 379.979C130.14 379.979 102.472 383.632 88.3688 379.459Z" fill="url(#paint22_linear)"/>
<path d="M129.102 249.361L116.056 279.661C116.056 279.661 120.225 289.062 134.847 285.409L140.073 264.511L129.102 249.361Z" fill="url(#paint23_linear)"/>
<path d="M154.973 235.547C155.121 235.973 155.473 265.828 155.473 265.828L138.442 265.661L133.92 237.42C133.902 237.42 152.323 228.463 154.973 235.547Z" fill="url(#paint24_linear)"/>
<path d="M138.905 242.853L140.129 257.91C140.147 258.095 140.184 258.28 140.258 258.466C140.666 259.578 142.371 263.306 146.059 261.321C149.413 259.541 152.508 257.947 154.917 258.151C155.992 258.243 156.844 259.133 156.844 260.227C156.881 262.935 156.826 269.054 155.992 274.357C155.825 275.433 154.843 276.193 153.75 276.119C150.469 275.878 143.575 275.21 138.164 273.356C137.423 273.096 136.885 272.484 136.756 271.724C136.107 267.997 134.124 256.667 133.068 253.608C132.086 250.733 128.083 249.732 126.378 249.454C125.822 249.361 125.321 249.046 125.006 248.564C123.876 246.895 121.967 242.871 126.915 239.997C127.953 239.385 128.287 238.069 127.638 237.049C126.378 235.027 125.321 231.745 129.046 229.001C132.827 226.22 136.441 227.777 138.516 229.223C139.35 229.817 140.481 229.687 141.203 228.964C141.611 228.556 142.223 228.315 143.075 228.63C144.224 229.038 145.466 228.315 145.762 227.128C146.318 224.847 147.893 222.196 152.137 222.01C159.68 221.676 162.256 229.576 161.348 234.731C160.458 239.867 152.248 239.756 147.801 238.235C144.428 237.067 140.981 239.812 139.517 241.184C139.072 241.592 138.85 242.204 138.905 242.853Z" fill="url(#paint25_linear)"/>
<path d="M133.568 259.078C133.568 259.078 134.754 250.047 131.233 248.657C127.712 247.266 123.394 249.324 125.711 255.184C128.583 262.453 133.568 259.078 133.568 259.078Z" fill="url(#paint26_linear)"/>
<path d="M169.316 350.736C126.285 364.254 128.565 303.655 128.287 303.229C111.237 277.139 101.656 311.907 103.306 316.802C118.428 371.615 156.585 368.89 171.448 358.135C169.594 355.242 169.168 352.72 169.316 350.736Z" fill="url(#paint27_linear)"/>
<path d="M136.33 341.391C136.089 341.316 135.885 341.168 135.737 340.927C129.213 330.765 127.379 316.636 126.99 306.567C126.971 305.955 127.434 305.454 128.046 305.436C128.657 305.417 129.158 305.881 129.176 306.493C129.491 314.503 131.011 329.486 137.59 339.74C137.923 340.241 137.775 340.927 137.256 341.261C136.96 341.446 136.626 341.483 136.33 341.391Z" fill="url(#paint28_linear)"/>
<path d="M124.321 355.168C124.191 355.131 124.062 355.056 123.95 354.964C114.11 346.712 106.697 333.751 101.934 316.45C101.768 315.875 102.12 315.263 102.694 315.096C103.269 314.929 103.88 315.282 104.047 315.857C108.699 332.731 115.87 345.321 125.359 353.276C125.822 353.666 125.878 354.352 125.488 354.815C125.192 355.168 124.729 355.279 124.321 355.168Z" fill="url(#paint29_linear)"/>
<path d="M194.65 338.09C194.65 338.09 193.946 339.202 188.905 343.115C183.864 347.028 178.786 349.271 182.641 343.912C186.496 338.535 184.624 335.772 180.232 341.557C175.84 347.343 172.689 349.568 172.689 349.568C171.54 350.013 170.41 350.402 169.317 350.755C169.168 352.739 169.595 355.261 171.448 358.153C173.19 357.579 174.172 357.152 174.172 357.152C174.172 357.152 187.496 354.723 190.35 349.049C193.204 343.338 194.65 338.09 194.65 338.09Z" fill="url(#paint30_linear)"/>
<path d="M34.8856 362.177C34.9412 361.788 47.4132 386.172 75.3965 382.111C103.38 378.05 126.044 385.059 137.497 407.978C148.95 430.897 150.988 452.37 159.921 455.745C159.921 455.745 76.1377 457.637 61.0156 456.042C45.875 454.447 23.2845 441.041 34.8856 362.177Z" fill="url(#paint31_linear)"/>
<path d="M132.086 413.448C131.993 413.448 131.901 413.393 131.845 413.3C128.009 405.067 119.299 394.405 99.6178 390.362C87.8129 387.933 77.5277 389.083 77.4165 389.083C77.2682 389.101 77.1385 388.99 77.1385 388.86C77.12 388.712 77.2312 388.582 77.3609 388.582C77.4721 388.564 87.8315 387.433 99.7104 389.862C110.7 392.105 125.285 397.965 132.327 413.078C132.382 413.207 132.327 413.356 132.197 413.43C132.16 413.448 132.123 413.448 132.086 413.448Z" fill="white"/>
</g>
<path fill-rule="evenodd" clip-rule="evenodd" d="M232.527 24.7025C232.823 12.0747 242.701 1.74624 255.302 0.930347C325.149 -3.59416 468.142 9.57141 521.996 14.9303C534.487 16.1913 544.309 26.1489 545.365 38.6654C554.186 143.118 550.48 371.124 548.793 452.194C548.46 469.068 535.061 482.716 518.215 483.42C437.342 486.832 295.146 482.716 245.703 481.103C235.695 480.769 227.69 472.74 227.375 462.745C224.41 368.342 230.618 101.934 232.527 24.7025ZM253.031 48.8965C253.494 37.9561 262.204 29.1667 273.138 28.5733C331.403 25.4025 461.293 36.2131 511.867 40.719C524.098 41.8316 533.605 51.8448 534.013 64.1203C536.607 141.055 526.637 337 523.153 401.53C522.486 413.916 512.793 423.911 500.451 424.894C431.883 430.383 311.981 424.356 265.225 421.612C253.883 420.944 244.914 411.747 244.525 400.38C241.819 322.573 250.325 112.147 253.031 48.8965Z" fill="url(#paint32_linear)"/>
<path opacity="0.5" d="M354.689 14.4299C354.689 16.8034 356.542 18.7504 358.896 18.8802C370.571 19.4922 403.465 21.2167 418.161 22.0696C421.052 22.2365 423.332 19.622 422.776 16.7849L422.683 16.3028C422.312 14.3557 420.7 12.8908 418.717 12.7054C408.784 11.7968 378.799 9.27495 358.933 9.97958C356.561 10.0723 354.689 12.0379 354.689 14.4299Z" fill="#3F67F9"/>
<path d="M341.402 152.316C341.402 152.316 336.139 132.512 364.122 129.211C392.106 125.911 399.889 174.104 377.706 180.612C355.523 187.121 341.402 152.316 341.402 152.316Z" fill="url(#paint33_linear)"/>
<path d="M305.821 356.364L363.659 353.897L376.946 377.67L305.821 372.274V356.364Z" fill="url(#paint34_linear)"/>
<path d="M379.559 389.5C379.559 389.5 347.592 359.052 331.858 338.877C323.352 327.974 320.683 313.622 324.612 300.364C331.802 276.146 344.571 251.058 345.72 247.164C347.499 241.174 383.34 241.434 383.34 241.434C383.34 241.434 453.872 287.235 481.578 364.819L450.463 374.517C450.463 374.517 432.042 343.606 413.843 323.95C413.843 323.95 445.329 365.561 446.441 382.602L379.559 389.5Z" fill="url(#paint35_linear)"/>
<path d="M341.402 213.712C341.772 214.954 351.131 245.995 351.854 246.626C352.577 247.275 372.369 248.332 381.69 241.972L362.695 199.897L341.402 213.712Z" fill="url(#paint36_linear)"/>
<path d="M315.679 178.851C315.679 178.851 309.026 194.242 316.847 217.643C324.667 241.045 337.454 243.084 345.553 237.299C353.651 231.513 364.159 221.166 365.456 199.972C366.772 178.777 324.853 159.381 315.679 178.851Z" fill="url(#paint37_linear)"/>
<path d="M351.483 152.853C343.867 148.663 335.898 147.494 328.522 148.57C322.926 149.367 317.681 151.444 313.122 154.448C308.489 157.489 304.801 161.476 302.059 166.075C301.169 167.929 300.539 169.894 300.131 171.953C298.612 179.704 300.669 187.733 305.728 193.796C309.508 198.339 313.326 202.085 313.326 202.085L313.993 197.32C313.993 191.349 318.682 184.914 324.501 183.06C330.32 181.206 336.454 182.671 340.883 186.843C346.609 192.276 349.76 199.545 349.76 199.545L351.669 198.988C351.669 198.988 351.52 189.717 357.395 191.887C363.251 194.075 365.642 206.313 365.642 206.313C365.642 206.313 378.095 212.024 379.263 195.354C380.412 178.702 373.073 164.702 351.483 152.853Z" fill="url(#paint38_linear)"/>
<path d="M354.523 198.989C354.523 198.989 347.165 182.745 357.469 182.17C367.773 181.577 363.585 197.82 361.528 203.754L354.523 198.989Z" fill="url(#paint39_linear)"/>
<path d="M318.663 401.516L342.681 375.37L370.423 382.843C370.423 382.843 402.761 387.85 421.275 382.843C439.788 377.837 439.788 377.837 439.788 377.837L481.615 364.801L488.175 383.381C489.843 388.091 488.175 393.339 484.098 396.231C480.484 398.809 476.24 401.627 473.535 402.814C468.031 405.225 346.646 403.574 346.646 403.574L318.663 401.516Z" fill="url(#paint40_linear)"/>
<path d="M349.556 401.683L303.504 299.677C303.041 298.639 301.855 298.101 300.761 298.435L259.787 310.766C259.176 310.952 258.675 311.378 258.397 311.934C258.119 312.491 258.082 313.158 258.305 313.752L293.219 407.987C293.571 408.952 294.535 409.563 295.554 409.471L347.666 404.909C348.407 404.854 349.056 404.427 349.445 403.797C349.815 403.129 349.853 402.35 349.556 401.683Z" fill="url(#paint41_linear)"/>
<path d="M291.292 303.238L290.013 300.345C289.587 299.381 288.512 298.917 287.53 299.269L281.451 301.458C281.192 301.55 280.895 301.458 280.728 301.235L279.653 299.77C278.82 298.639 277.318 298.231 276.04 298.787L270.703 301.235C269.591 301.717 269.22 302.793 269.22 303.998V305.76C269.22 306.038 268.72 306.279 268.442 306.371L266.459 306.928C265.921 307.095 265.402 307.484 265.161 307.985C264.921 308.485 264.865 309.079 265.087 309.598L266.403 312.787C266.811 313.77 267.923 314.252 268.923 313.881L290.161 305.889C290.68 305.704 291.088 305.296 291.292 304.795C291.514 304.313 291.514 303.738 291.292 303.238Z" fill="url(#paint42_linear)"/>
<path d="M266.533 350.244C266.533 350.244 275.298 338.321 275.65 341.919C275.984 345.516 275.65 353.285 275.65 353.285C275.65 353.285 277.337 354.75 279.82 360.146C282.303 365.542 283.619 374.017 280.932 374.795C278.226 375.574 265.513 358.904 266.533 350.244Z" fill="url(#paint43_linear)"/>
<path d="M357.821 350.004C357.562 349.67 357.154 349.466 356.728 349.466C355.783 349.466 354.967 350.078 354.689 350.968L346.72 376.984L350.89 378.226L358.062 351.19C358.173 350.782 358.081 350.337 357.821 350.004Z" fill="url(#paint44_linear)"/>
<path d="M308.601 192.517C308.471 192.517 308.341 192.462 308.248 192.35C308.1 192.184 294.368 175.124 308.286 162.329C308.471 162.162 308.749 162.181 308.916 162.366C309.082 162.552 309.064 162.83 308.897 162.997C295.591 175.235 308.804 191.627 308.934 191.776C309.101 191.961 309.064 192.258 308.879 192.406C308.804 192.499 308.693 192.517 308.601 192.517Z" fill="white"/>
<path d="M402.724 126.318C402.724 153.317 428.984 175.272 461.878 175.346C495.31 175.42 522.83 152.946 522.83 125.132C522.83 97.317 495.31 75.3806 461.878 76.1223C429.003 76.8455 402.724 99.3196 402.724 126.318Z" fill="url(#paint45_linear)"/>
<path d="M402.724 126.318C402.724 153.317 428.984 175.272 461.878 175.346C495.31 175.42 522.83 152.946 522.83 125.132C522.83 97.317 495.31 75.3806 461.878 76.1223C429.003 76.8455 402.724 99.3196 402.724 126.318Z" fill="url(#paint46_linear)"/>
<path d="M436.545 167.725C431.282 170.358 425.834 172.973 420.163 175.569C415.474 177.72 410.841 179.741 406.32 181.669C406.486 177.034 408.506 172.695 410.953 165.407C413.566 157.619 415.901 149.627 418.717 145.733L436.545 167.725Z" fill="url(#paint47_linear)"/>
<path opacity="0.9" d="M507.246 110.001C507.246 111.911 505.726 113.413 503.873 113.413H422.833C420.961 113.413 419.46 111.929 419.46 110.001C419.46 108.091 420.979 106.589 422.833 106.589H503.873C505.726 106.607 507.246 108.091 507.246 110.001Z" fill="white"/>
<path opacity="0.9" d="M507.244 126.411C507.244 128.321 505.725 129.508 503.872 129.508H422.831C420.96 129.508 419.458 128.321 419.458 126.411C419.458 124.501 420.978 123.314 422.831 123.314H503.872C505.725 123.314 507.244 124.501 507.244 126.411Z" fill="white"/>
<path opacity="0.9" d="M489.676 143.119C489.676 145.029 488.157 146.827 486.303 146.827H422.813C420.941 146.827 419.44 145.029 419.44 143.119C419.44 141.209 420.96 139.41 422.813 139.41H486.303C488.157 139.41 489.676 141.209 489.676 143.119Z" fill="white"/>
<path d="M109.159 86.9887C64.2376 110.353 11.7365 170.432 67.9811 159.195C124.207 147.958 89.6264 192.332 124.67 191.238C159.696 190.144 213.92 182.671 249.409 145.881C284.898 109.092 250.41 100.303 236.029 101.73C188.68 106.403 235.343 21.3463 109.159 86.9887Z" fill="url(#paint48_linear)"/>
<path d="M158.806 161.717C154.136 161.717 149.077 160.067 144.259 156.859C141.238 154.838 138.644 152.427 136.55 149.794C132.083 148.959 128.08 147.309 126.116 146.438C125.579 146.197 125.078 145.955 124.559 145.696C122.854 145.028 121.298 144.12 119.871 143.063C114.737 139.799 110.512 135.887 106.139 131.789C104.582 130.342 102.97 128.84 101.302 127.357L101.042 127.116C97.6509 124.093 97.0393 123.555 93.5368 126.189C90.4049 128.562 86.3464 134.31 86.8653 138.242C86.9394 138.798 86.5502 139.298 86.0128 139.373C85.4569 139.447 84.9565 139.057 84.8824 138.501C84.2338 133.661 88.8667 127.19 92.3322 124.575C97.132 120.922 99.0037 122.591 102.377 125.595L102.636 125.818C104.322 127.32 105.953 128.822 107.51 130.287C109.641 132.271 111.717 134.199 113.885 136.035C112.532 133.587 111.68 130.954 111.402 128.395C110.623 121.275 113.978 115.526 120.482 112.634C122.28 107.664 125.782 103.121 131.157 101.1C134.418 99.8574 137.55 99.9502 140.46 101.322C140.83 101.489 141.183 101.693 141.535 101.897C145.389 99.7647 149.54 98.6892 153.525 98.9303C159.455 99.2641 164.625 102.287 168.48 107.683C169.333 108.888 170.167 110.26 170.945 111.744C171.575 111.336 172.224 110.965 172.909 110.649C179.97 107.182 187.105 109.722 192.053 117.418C196.704 116.824 201.208 118.846 204.451 121.553C210.159 126.318 214.05 135.015 210.455 142.377C208.25 146.883 204.21 149.516 198.761 149.961C193.739 150.369 187.939 148.959 182.416 146.623C180.378 148.422 177.839 149.868 174.948 150.944C173.243 154.8 170.648 157.693 167.22 159.585C164.7 161.031 161.827 161.717 158.806 161.717ZM139.552 150.22C141.238 152.038 143.184 153.725 145.389 155.19C152.691 160.067 160.493 161.049 166.275 157.86C168.795 156.469 170.797 154.448 172.279 151.834C163.866 154.151 153.21 153.669 143.406 150.257C142.128 150.369 140.83 150.332 139.552 150.22ZM147.558 149.423C155.304 151.5 163.421 151.741 170.167 150.257C163.995 148.347 160.826 139.502 160.215 134.904C159.918 132.604 159.992 130.268 160.4 127.987C159.066 124 160.067 121.071 160.975 119.457C162.328 117.047 164.737 115.285 167.591 114.469C167.776 114.302 167.961 114.117 168.147 113.95C163.069 110.612 156.675 110.353 150.041 113.208C150.337 113.932 150.56 114.581 150.726 115.1C151.838 118.456 152.246 122.109 151.968 125.688C152.042 125.799 152.135 125.929 152.209 126.04C157.009 133.179 157.213 140.393 152.746 145.826C151.301 147.587 149.522 148.737 147.558 149.423ZM162.031 131.473C161.994 132.53 162.05 133.587 162.198 134.644C162.846 139.54 166.571 148.626 172.613 148.626C172.65 148.626 172.705 148.626 172.742 148.626C173.095 148.626 173.428 148.589 173.762 148.57C174.077 147.698 174.336 146.771 174.559 145.807C174.762 144.88 174.929 143.934 175.059 142.97C169.648 139.781 165.163 136.016 162.921 132.846C162.587 132.363 162.29 131.918 162.031 131.473ZM138.236 145.9C138.847 146.215 139.478 146.512 140.126 146.79C141.312 147.328 142.517 147.791 143.74 148.236C146.631 147.921 149.3 146.864 151.208 144.546C155.804 138.965 153.821 132.771 151.579 128.803C150.819 132.827 149.207 136.61 146.816 139.651C144.463 142.618 141.553 144.732 138.236 145.9ZM183.973 145.121C188.995 147.161 194.184 148.366 198.595 147.995C203.376 147.606 206.749 145.436 208.639 141.542C211.789 135.108 208.25 127.412 203.153 123.147C200.503 120.941 196.927 119.235 193.183 119.402C196 124.594 200.151 135.034 195.555 140.077C194.036 141.746 191.923 142.544 189.458 142.414C188.383 142.358 187.29 142.117 186.252 141.728C185.622 143.026 184.825 144.157 183.973 145.121ZM137.68 147.977C137.791 147.995 137.884 148.014 137.995 148.032C137.847 147.958 137.699 147.884 137.569 147.828C137.606 147.865 137.643 147.921 137.68 147.977ZM176.931 144.027C176.82 144.787 176.671 145.529 176.504 146.252C176.356 146.864 176.208 147.457 176.041 148.032C177.45 147.476 178.487 146.53 179.173 145.195C178.413 144.806 177.672 144.416 176.931 144.027ZM133.269 146.957C133.77 147.105 134.307 147.253 134.845 147.383C134.733 147.198 134.604 147.012 134.492 146.827C134.085 146.883 133.677 146.92 133.269 146.957ZM125.43 143.879C126.876 144.435 128.414 144.806 130.063 144.936C130.971 145.01 131.842 145.028 132.676 144.991C123.651 138.909 118.759 130.194 119.037 120.292C119.092 118.679 119.296 117.01 119.704 115.341C115.052 118.03 112.792 122.573 113.403 128.228C113.922 132.994 116.646 138.019 120.89 141.32C122.335 142.228 123.837 143.081 125.43 143.879ZM135.363 144.305C135.493 144.398 135.641 144.472 135.771 144.546C140.274 143.508 143.314 140.819 145.222 138.39C147.836 135.052 149.448 130.732 149.911 126.244C147.706 123.222 144.907 120.57 141.868 118.456C137.031 122.777 133.714 128.469 133.103 133.977C132.732 137.296 133.566 140.893 135.363 144.305ZM181.693 144.138C181.805 144.194 181.897 144.231 182.008 144.287C183.009 143.248 183.825 142.098 184.436 140.875C183.584 140.393 182.805 139.799 182.138 139.15C182.231 140.93 182.101 142.636 181.693 144.138ZM177.209 141.857C178.08 142.34 178.951 142.803 179.859 143.267C181.026 138.186 178.71 130.472 175.596 124.186C177.042 129.953 177.728 136.165 177.209 141.857ZM122.15 114.173C121.464 116.249 121.112 118.382 121.057 120.347C120.797 128.933 124.8 136.591 132.269 142.21C131.231 139.373 130.823 136.498 131.12 133.773C131.768 127.95 135.178 121.961 140.163 117.344C137.55 115.749 134.826 114.562 132.195 113.876C129.748 117.937 128.025 123.018 130.453 126.8C130.749 127.264 130.619 127.895 130.156 128.191C129.693 128.488 129.063 128.358 128.766 127.895C126.042 123.648 127.376 118.178 130.1 113.431C127.691 113.042 125.412 113.116 123.429 113.746C122.966 113.876 122.558 114.024 122.15 114.173ZM162.457 127.802C162.921 129.063 163.625 130.342 164.551 131.659C166.571 134.496 170.519 137.815 175.263 140.726C175.782 132.901 173.929 123.908 171.038 116.769C170.815 116.491 170.611 116.231 170.389 115.99C169.777 116.046 169.166 116.138 168.591 116.268C165.515 119.365 163.328 123.463 162.457 127.802ZM187.049 139.873C187.883 140.17 188.754 140.374 189.588 140.411C190.867 140.485 192.701 140.244 194.091 138.724C197.835 134.626 193.925 124.668 191.071 119.698C189.681 120.032 188.309 120.663 186.956 121.646C186.326 122.109 185.733 122.61 185.177 123.166C185.492 123.815 185.789 124.483 186.067 125.169C188.458 131.418 188.309 136.22 187.049 139.873ZM181.341 133.921C181.601 134.885 182.046 135.849 182.713 136.777C183.324 137.63 184.195 138.39 185.196 139.002C186.401 135.275 186.067 130.843 184.177 125.91C184.028 125.521 183.88 125.15 183.713 124.798C181.693 127.394 180.6 130.509 181.23 133.513C181.286 133.643 181.323 133.773 181.341 133.921ZM173.058 116.083C175.411 119.179 177.839 123.593 179.599 128.247C180.211 126.3 181.304 124.464 182.713 122.832C179.729 117.807 175.485 116.435 173.058 116.083ZM143.406 117.177C145.89 118.957 148.169 121.015 150.059 123.203C150.022 120.663 149.633 118.122 148.836 115.73C148.688 115.267 148.484 114.692 148.225 114.061C146.52 114.951 144.889 115.99 143.406 117.177ZM164.144 118.604C163.569 119.142 163.087 119.754 162.698 120.44C162.253 121.238 161.957 122.091 161.827 122.999C162.457 121.479 163.236 119.995 164.144 118.604ZM172.02 113.969C172.131 113.969 172.242 113.987 172.353 113.987C177.153 114.34 181.36 117.028 184.14 121.367C184.659 120.885 185.196 120.44 185.77 120.032C187.142 119.031 188.532 118.345 189.94 117.918C185.622 111.651 179.655 109.63 173.799 112.504C173.132 112.838 172.483 113.208 171.853 113.616C171.909 113.728 171.964 113.839 172.02 113.969ZM133.306 112.114C136.142 112.949 138.996 114.302 141.664 115.99C143.443 114.544 145.371 113.246 147.428 112.207C146.186 109.537 144.24 106.347 141.479 104.308C139.311 105.643 137.254 107.367 135.438 109.426C134.752 110.186 134.029 111.095 133.306 112.114ZM158.899 109.259C162.457 109.259 165.83 110.167 168.777 111.985C168.165 110.853 167.516 109.834 166.849 108.906C163.365 104.011 158.732 101.285 153.432 100.989C150.096 100.803 146.649 101.619 143.369 103.269C146.075 105.55 147.984 108.721 149.225 111.391C152.506 109.963 155.767 109.259 158.899 109.259ZM135.697 102.287C134.474 102.287 133.195 102.528 131.898 103.028C127.765 104.586 124.874 107.942 123.114 111.744C125.616 111.039 128.395 111.039 131.212 111.614C132.065 110.353 132.991 109.166 133.955 108.091C135.66 106.181 137.569 104.512 139.589 103.177C138.329 102.583 137.031 102.287 135.697 102.287Z" fill="white"/>
<path d="M126.487 203.346C126.413 207.37 123.466 213.953 116.832 213.823C110.197 213.693 102.395 206.907 102.469 202.901C102.543 198.877 107.973 195.725 114.608 195.855C121.242 195.985 126.561 199.341 126.487 203.346Z" fill="url(#paint49_linear)"/>
<path d="M136.438 219.534C136.401 221.481 134.696 223.02 132.621 222.983C130.545 222.946 126.45 220.869 126.487 218.941C126.524 216.994 129.1 215.047 131.157 215.084C133.232 215.121 136.475 217.587 136.438 219.534Z" fill="url(#paint50_linear)"/>
<defs>
<linearGradient id="paint0_linear" x1="465.578" y1="17.4012" x2="241.725" y2="605.933" gradientUnits="userSpaceOnUse">
<stop stop-color="#53D8FF"/>
<stop offset="1" stop-color="#3840F7"/>
</linearGradient>
<linearGradient id="paint1_linear" x1="465.578" y1="28.4012" x2="241.725" y2="616.933" gradientUnits="userSpaceOnUse">
<stop stop-color="#53D8FF"/>
<stop offset="1" stop-color="#3840F7"/>
</linearGradient>
<linearGradient id="paint2_linear" x1="408.523" y1="614.687" x2="418.123" y2="96.5497" gradientUnits="userSpaceOnUse">
<stop stop-color="#CB236D"/>
<stop offset="1" stop-color="#4C246D"/>
</linearGradient>
<linearGradient id="paint3_linear" x1="-145.235" y1="504.18" x2="147.341" y2="502.977" gradientUnits="userSpaceOnUse">
<stop stop-color="#C32B78"/>
<stop offset="1" stop-color="#593092"/>
</linearGradient>
<linearGradient id="paint4_linear" x1="132.911" y1="480.805" x2="323.767" y2="500.836" gradientUnits="userSpaceOnUse">
<stop stop-color="#F9B776"/>
<stop offset="1" stop-color="#F47960"/>
</linearGradient>
<linearGradient id="paint5_linear" x1="170.24" y1="464.073" x2="-492.289" y2="272.994" gradientUnits="userSpaceOnUse">
<stop stop-color="#F9B776"/>
<stop offset="1" stop-color="#F47960"/>
</linearGradient>
<linearGradient id="paint6_linear" x1="482.497" y1="272.394" x2="343.769" y2="488.68" gradientUnits="userSpaceOnUse">
<stop stop-color="#FDF53F"/>
<stop offset="1" stop-color="#D93C65"/>
</linearGradient>
<linearGradient id="paint7_linear" x1="50.1347" y1="559.697" x2="65.9029" y2="424.171" gradientUnits="userSpaceOnUse">
<stop stop-color="#FDF53F"/>
<stop offset="1" stop-color="#D93C65"/>
</linearGradient>
<linearGradient id="paint8_linear" x1="99.762" y1="566.041" x2="115.544" y2="430.398" gradientUnits="userSpaceOnUse">
<stop stop-color="#FDF53F"/>
<stop offset="1" stop-color="#D93C65"/>
</linearGradient>
<linearGradient id="paint9_linear" x1="164.906" y1="574.068" x2="180.674" y2="438.542" gradientUnits="userSpaceOnUse">
<stop stop-color="#FDF53F"/>
<stop offset="1" stop-color="#D93C65"/>
</linearGradient>
<linearGradient id="paint10_linear" x1="214.532" y1="580.424" x2="230.313" y2="444.782" gradientUnits="userSpaceOnUse">
<stop stop-color="#FDF53F"/>
<stop offset="1" stop-color="#D93C65"/>
</linearGradient>
<linearGradient id="paint11_linear" x1="195.396" y1="392.507" x2="145.542" y2="482.386" gradientUnits="userSpaceOnUse">
<stop stop-color="#CB236D"/>
<stop offset="1" stop-color="#4C246D"/>
</linearGradient>
<linearGradient id="paint12_linear" x1="130.038" y1="210.393" x2="75.77" y2="449.523" gradientUnits="userSpaceOnUse">
<stop stop-color="#CB236D"/>
<stop offset="1" stop-color="#4C246D"/>
</linearGradient>
<linearGradient id="paint13_linear" x1="221.665" y1="396.574" x2="139.091" y2="454.465" gradientUnits="userSpaceOnUse">
<stop stop-color="#CB236D"/>
<stop offset="1" stop-color="#4C246D"/>
</linearGradient>
<linearGradient id="paint14_linear" x1="196.631" y1="286.704" x2="202.948" y2="318.144" gradientUnits="userSpaceOnUse">
<stop stop-color="#F9B776"/>
<stop offset="1" stop-color="#F47960"/>
</linearGradient>
<linearGradient id="paint15_linear" x1="174.861" y1="268.441" x2="128.614" y2="412.644" gradientUnits="userSpaceOnUse">
<stop stop-color="#FDF53F"/>
<stop offset="1" stop-color="#D93C65"/>
</linearGradient>
<linearGradient id="paint16_linear" x1="175.721" y1="480.889" x2="186.963" y2="480.889" gradientUnits="userSpaceOnUse">
<stop stop-color="#F9B776"/>
<stop offset="1" stop-color="#F47960"/>
</linearGradient>
<linearGradient id="paint17_linear" x1="238.814" y1="485.179" x2="272.361" y2="485.179" gradientUnits="userSpaceOnUse">
<stop stop-color="#2B3582"/>
<stop offset="1" stop-color="#150E42"/>
</linearGradient>
<linearGradient id="paint18_linear" x1="257.49" y1="471.607" x2="229.743" y2="532.613" gradientUnits="userSpaceOnUse">
<stop stop-color="#CB236D"/>
<stop offset="1" stop-color="#4C246D"/>
</linearGradient>
<linearGradient id="paint19_linear" x1="248.66" y1="365.071" x2="196.281" y2="402.023" gradientUnits="userSpaceOnUse">
<stop stop-color="#53D8FF"/>
<stop offset="1" stop-color="#3840F7"/>
</linearGradient>
<linearGradient id="paint20_linear" x1="1841.33" y1="1328.81" x2="1831.4" y2="1323.58" gradientUnits="userSpaceOnUse">
<stop stop-color="#F9B776"/>
<stop offset="1" stop-color="#F47960"/>
</linearGradient>
<linearGradient id="paint21_linear" x1="287.685" y1="338.039" x2="86.1552" y2="484.015" gradientUnits="userSpaceOnUse">
<stop stop-color="#53D8FF"/>
<stop offset="1" stop-color="#3840F7"/>
</linearGradient>
<linearGradient id="paint22_linear" x1="142.923" y1="291.115" x2="55.2765" y2="437.836" gradientUnits="userSpaceOnUse">
<stop stop-color="#FDF53F"/>
<stop offset="1" stop-color="#D93C65"/>
</linearGradient>
<linearGradient id="paint23_linear" x1="116.045" y1="267.813" x2="140.062" y2="267.813" gradientUnits="userSpaceOnUse">
<stop stop-color="#F9B776"/>
<stop offset="1" stop-color="#F47960"/>
</linearGradient>
<linearGradient id="paint24_linear" x1="148.739" y1="238.077" x2="132.431" y2="292.481" gradientUnits="userSpaceOnUse">
<stop stop-color="#F9B776"/>
<stop offset="1" stop-color="#F47960"/>
</linearGradient>
<linearGradient id="paint25_linear" x1="128.047" y1="257.442" x2="166.374" y2="243.19" gradientUnits="userSpaceOnUse">
<stop stop-color="#2B3582"/>
<stop offset="1" stop-color="#150E42"/>
</linearGradient>
<linearGradient id="paint26_linear" x1="114.258" y1="289.198" x2="130.183" y2="253.21" gradientUnits="userSpaceOnUse">
<stop stop-color="#F9B776"/>
<stop offset="1" stop-color="#F47960"/>
</linearGradient>
<linearGradient id="paint27_linear" x1="159.511" y1="310.569" x2="32.3366" y2="424.693" gradientUnits="userSpaceOnUse">
<stop stop-color="#FDF53F"/>
<stop offset="1" stop-color="#D93C65"/>
</linearGradient>
<linearGradient id="paint28_linear" x1="199.353" y1="198.954" x2="61.8628" y2="454.141" gradientUnits="userSpaceOnUse">
<stop stop-color="#FDF53F"/>
<stop offset="1" stop-color="#D93C65"/>
</linearGradient>
<linearGradient id="paint29_linear" x1="189.327" y1="194.785" x2="51.8375" y2="449.97" gradientUnits="userSpaceOnUse">
<stop stop-color="#FDF53F"/>
<stop offset="1" stop-color="#D93C65"/>
</linearGradient>
<linearGradient id="paint30_linear" x1="186.942" y1="343.935" x2="135.877" y2="388.478" gradientUnits="userSpaceOnUse">
<stop stop-color="#F9B776"/>
<stop offset="1" stop-color="#F47960"/>
</linearGradient>
<linearGradient id="paint31_linear" x1="116.278" y1="383.845" x2="0.946852" y2="537.202" gradientUnits="userSpaceOnUse">
<stop stop-color="#CB236D"/>
<stop offset="1" stop-color="#4C246D"/>
</linearGradient>
<linearGradient id="paint32_linear" x1="257.051" y1="431.339" x2="665.816" y2="-154.639" gradientUnits="userSpaceOnUse">
<stop stop-color="#2B3582"/>
<stop offset="1" stop-color="#150E42"/>
</linearGradient>
<linearGradient id="paint33_linear" x1="332.894" y1="114.988" x2="391.31" y2="179.715" gradientUnits="userSpaceOnUse">
<stop stop-color="#2B3582"/>
<stop offset="1" stop-color="#150E42"/>
</linearGradient>
<linearGradient id="paint34_linear" x1="305.829" y1="365.784" x2="376.953" y2="365.784" gradientUnits="userSpaceOnUse">
<stop stop-color="#F9B776"/>
<stop offset="1" stop-color="#F47960"/>
</linearGradient>
<linearGradient id="paint35_linear" x1="320.715" y1="254.4" x2="723.613" y2="642.805" gradientUnits="userSpaceOnUse">
<stop stop-color="#FDF53F"/>
<stop offset="1" stop-color="#D93C65"/>
</linearGradient>
<linearGradient id="paint36_linear" x1="371.147" y1="289.465" x2="359.528" y2="214.955" gradientUnits="userSpaceOnUse">
<stop stop-color="#F9B776"/>
<stop offset="1" stop-color="#F47960"/>
</linearGradient>
<linearGradient id="paint37_linear" x1="310.465" y1="209.259" x2="399.882" y2="194.283" gradientUnits="userSpaceOnUse">
<stop stop-color="#F9B776"/>
<stop offset="1" stop-color="#F47960"/>
</linearGradient>
<linearGradient id="paint38_linear" x1="449.319" y1="62.5926" x2="141.804" y2="403.329" gradientUnits="userSpaceOnUse">
<stop stop-color="#2B3582"/>
<stop offset="1" stop-color="#150E42"/>
</linearGradient>
<linearGradient id="paint39_linear" x1="309.142" y1="201.364" x2="398.561" y2="186.388" gradientUnits="userSpaceOnUse">
<stop stop-color="#F9B776"/>
<stop offset="1" stop-color="#F47960"/>
</linearGradient>
<linearGradient id="paint40_linear" x1="424.715" y1="384.467" x2="594.868" y2="384.467" gradientUnits="userSpaceOnUse">
<stop stop-color="#F9B776"/>
<stop offset="1" stop-color="#F47960"/>
</linearGradient>
<linearGradient id="paint41_linear" x1="258.166" y1="353.901" x2="349.756" y2="353.901" gradientUnits="userSpaceOnUse">
<stop stop-color="#2B3582"/>
<stop offset="1" stop-color="#150E42"/>
</linearGradient>
<linearGradient id="paint42_linear" x1="264.96" y1="306.298" x2="291.461" y2="306.298" gradientUnits="userSpaceOnUse">
<stop stop-color="#B37CFF"/>
<stop offset="1" stop-color="#F895E7"/>
</linearGradient>
<linearGradient id="paint43_linear" x1="266.477" y1="358.032" x2="282.404" y2="358.032" gradientUnits="userSpaceOnUse">
<stop stop-color="#F9B776"/>
<stop offset="1" stop-color="#F47960"/>
</linearGradient>
<linearGradient id="paint44_linear" x1="346.717" y1="363.845" x2="358.111" y2="363.845" gradientUnits="userSpaceOnUse">
<stop stop-color="#2B3582"/>
<stop offset="1" stop-color="#150E42"/>
</linearGradient>
<linearGradient id="paint45_linear" x1="484.985" y1="84.5536" x2="402.904" y2="236.698" gradientUnits="userSpaceOnUse">
<stop stop-color="#FF9085"/>
<stop offset="1" stop-color="#FB6FBB"/>
</linearGradient>
<linearGradient id="paint46_linear" x1="484.985" y1="84.5536" x2="402.904" y2="236.698" gradientUnits="userSpaceOnUse">
<stop stop-color="#B37CFF"/>
<stop offset="1" stop-color="#F895E7"/>
</linearGradient>
<linearGradient id="paint47_linear" x1="492.17" y1="71.7968" x2="370.158" y2="232.193" gradientUnits="userSpaceOnUse">
<stop stop-color="#B37CFF"/>
<stop offset="1" stop-color="#F895E7"/>
</linearGradient>
<linearGradient id="paint48_linear" x1="203.991" y1="46.043" x2="103.191" y2="228.114" gradientUnits="userSpaceOnUse">
<stop stop-color="#B37CFF"/>
<stop offset="1" stop-color="#F895E7"/>
</linearGradient>
<linearGradient id="paint49_linear" x1="269.735" y1="-14.6546" x2="-16.6032" y2="388.409" gradientUnits="userSpaceOnUse">
<stop stop-color="#B37CFF"/>
<stop offset="1" stop-color="#F895E7"/>
</linearGradient>
<linearGradient id="paint50_linear" x1="288.189" y1="-1.54412" x2="1.85002" y2="401.521" gradientUnits="userSpaceOnUse">
<stop stop-color="#B37CFF"/>
<stop offset="1" stop-color="#F895E7"/>
</linearGradient>
</defs>
</svg>
