<svg width="45" height="51" viewBox="0 0 45 51" fill="none" xmlns="http://www.w3.org/2000/svg">
<path d="M10.8306 33.4625C11.1989 33.6797 11.6342 33.7131 12.0192 33.5126L16.4887 31.274C16.9072 31.0735 17.1583 30.6391 17.1583 30.1881V9.60599C17.1583 9.17163 16.9239 8.77068 16.5389 8.5535L12.0861 5.96403C11.7011 5.74685 11.2491 5.74685 10.8641 5.96403C10.4791 6.18121 10.2448 6.58216 10.2448 7.01653V32.4267C10.2615 32.8444 10.4791 33.2453 10.8306 33.4625Z" fill="white" fill-opacity="0.2"/>
<path d="M25.9802 13.9664L23.7371 12.68L21.494 11.3937C21.109 11.1765 20.657 11.1765 20.272 11.3937C19.8869 11.6108 19.6526 12.0118 19.6526 12.4462V24.9424C19.6526 25.3601 19.8702 25.761 20.2385 25.9782C20.6068 26.1954 21.042 26.2288 21.427 26.0283L25.8965 23.7897C26.315 23.5892 26.5661 23.1549 26.5661 22.7038V15.0356C26.5996 14.5846 26.3653 14.1836 25.9802 13.9664Z" fill="white" fill-opacity="0.2"/>
<path d="M26.0137 26.9138C25.6454 26.6966 25.2102 26.6632 24.8252 26.8636L20.3556 29.1023C19.9371 29.3028 19.686 29.7371 19.686 30.1882V32.6774L6.93029 39.5103V3.72549C6.93029 3.29113 6.69593 2.89018 6.31092 2.673L1.95856 0.167062C1.77442 0.066825 1.5568 0 1.33919 0H1.22201C0.903951 0 0.585894 0.13365 0.351536 0.350831C0.133919 0.584719 0 0.902138 0 1.21956V49.7846C0 50.219 0.234358 50.6199 0.619374 50.8371C1.00439 51.0543 1.47311 51.0543 1.84138 50.8371L21.4772 39.4435C21.4939 39.4435 21.4939 39.4435 21.5107 39.4267L25.9802 36.8874C26.3652 36.6702 26.5996 36.2693 26.5996 35.8182V27.9328C26.5996 27.5319 26.382 27.1309 26.0137 26.9138Z" fill="white" fill-opacity="0.2"/>
<path d="M44.0256 23.7563L38.0494 19.9974L32.0733 16.2385C31.7553 16.038 31.387 15.9378 31.0354 15.9378C30.7174 15.9378 30.3826 16.0213 30.098 16.1717C29.4786 16.5058 29.0936 17.1574 29.0936 17.8757V25.4103V32.9448C29.0936 33.6464 29.4786 34.298 30.098 34.6488C30.3826 34.8159 30.7174 34.8827 31.0354 34.8827C31.4037 34.8827 31.7553 34.7825 32.0733 34.582L38.0494 30.8231L44.0256 27.0642C44.5947 26.7133 44.9295 26.0952 44.9295 25.427C44.9295 24.742 44.5947 24.1072 44.0256 23.7563ZM38.6521 25.878L36.9279 26.9639L35.2037 28.0498C35.1032 28.1 35.0028 28.1334 34.9024 28.1334C34.8019 28.1334 34.7182 28.1167 34.6345 28.0665C34.4504 27.9663 34.3499 27.7825 34.3499 27.5821V25.4103V23.2384C34.3499 23.038 34.4671 22.8542 34.6345 22.754C34.7182 22.7038 34.8187 22.6871 34.9024 22.6871C35.0028 22.6871 35.1032 22.7205 35.2037 22.7707L36.9279 23.8566L38.6521 24.9425C38.8195 25.0427 38.9199 25.2265 38.9199 25.4103C38.9199 25.594 38.8195 25.7778 38.6521 25.878Z" fill="white" fill-opacity="0.2"/>
</svg>
