<svg width="234" height="65" viewBox="0 0 234 65" fill="none" xmlns="http://www.w3.org/2000/svg">
<path d="M227.262 64.3998H227.262H6.74713H6.74652C5.11229 64.4015 3.54802 63.7746 2.3968 62.6629C1.24633 61.5519 0.602537 60.0483 0.600324 58.4839V6.52457C0.602536 4.95928 1.24617 3.45472 2.39654 2.34236C3.54764 1.22931 5.11201 0.600614 6.74713 0.600165C6.74718 0.600165 6.74723 0.600165 6.74728 0.600165H227.26C228.069 0.600165 228.869 0.754421 229.615 1.05368C230.362 1.35292 231.038 1.79104 231.608 2.34211C232.177 2.89312 232.627 3.54621 232.934 4.26355C233.241 4.98085 233.398 5.74889 233.398 6.524L233.4 58.4843C233.4 59.259 233.242 60.0265 232.935 60.7431C232.628 61.4599 232.178 62.1123 231.609 62.6626C231.039 63.213 230.363 63.6503 229.617 63.9488C228.871 64.2472 228.071 64.4006 227.262 64.3998Z" stroke="white" stroke-width="0.3"/>
<path d="M90.37 19.5314C90.37 20.5677 90.1104 21.4746 89.4614 22.1223C88.6827 22.8996 87.7741 23.2882 86.6059 23.2882C85.4378 23.2882 84.5292 22.8996 83.7504 22.1223C82.9717 21.345 82.5823 20.4382 82.5823 19.2723C82.5823 18.1063 82.9717 17.1995 83.7504 16.4222C84.5292 15.6449 85.4378 15.2563 86.6059 15.2563C87.1251 15.2563 87.6443 15.3858 88.1635 15.6449C88.6827 15.904 89.072 16.1631 89.3316 16.5518L88.6827 17.1995C88.1635 16.5518 87.5145 16.2927 86.6059 16.2927C85.8272 16.2927 85.0484 16.5518 84.5292 17.1995C83.8802 17.7177 83.6206 18.495 83.6206 19.4018C83.6206 20.3086 83.8802 21.0859 84.5292 21.6041C85.1782 22.1223 85.8272 22.5109 86.6059 22.5109C87.5145 22.5109 88.1635 22.2518 88.8125 21.6041C89.2018 21.2155 89.4614 20.6973 89.4614 20.0495H86.6059V19.0132H90.37V19.5314ZM96.3406 16.2927H92.8361V18.7541H96.081V19.6609H92.8361V22.1223H96.3406V23.1587H91.7977V15.3858H96.3406V16.2927ZM100.624 23.1587H99.5855V16.2927H97.379V15.3858H102.83V16.2927H100.624V23.1587ZM106.594 23.1587V15.3858H107.633V23.1587H106.594ZM112.046 23.1587H111.007V16.2927H108.801V15.3858H114.123V16.2927H111.916V23.1587H112.046ZM124.376 22.1223C123.598 22.8996 122.689 23.2882 121.521 23.2882C120.353 23.2882 119.444 22.8996 118.665 22.1223C117.887 21.345 117.497 20.4382 117.497 19.2723C117.497 18.1063 117.887 17.1995 118.665 16.4222C119.444 15.6449 120.353 15.2563 121.521 15.2563C122.689 15.2563 123.598 15.6449 124.376 16.4222C125.155 17.1995 125.545 18.1063 125.545 19.2723C125.545 20.4382 125.155 21.345 124.376 22.1223ZM119.444 21.4746C119.963 21.9928 120.742 22.3814 121.521 22.3814C122.3 22.3814 123.078 22.1223 123.598 21.4746C124.117 20.9564 124.506 20.1791 124.506 19.2723C124.506 18.3654 124.247 17.5882 123.598 17.07C123.078 16.5518 122.3 16.1631 121.521 16.1631C120.742 16.1631 119.963 16.4222 119.444 17.07C118.925 17.5882 118.536 18.3654 118.536 19.2723C118.536 20.1791 118.795 20.9564 119.444 21.4746ZM126.972 23.1587V15.3858H128.14L131.905 21.4746V15.3858H132.943V23.1587H131.905L127.881 16.8109V23.1587H126.972Z" fill="white" stroke="white" stroke-width="0.2" stroke-miterlimit="10"/>
<path d="M117.238 34.559C114.123 34.559 111.656 36.8909 111.656 40.1295C111.656 43.2387 114.123 45.7001 117.238 45.7001C120.353 45.7001 122.819 43.3682 122.819 40.1295C122.819 36.7613 120.353 34.559 117.238 34.559ZM117.238 43.3682C115.55 43.3682 114.123 41.9432 114.123 40C114.123 38.0568 115.55 36.6318 117.238 36.6318C118.925 36.6318 120.353 37.9272 120.353 40C120.353 41.9432 118.925 43.3682 117.238 43.3682ZM105.167 34.559C102.052 34.559 99.5854 36.8909 99.5854 40.1295C99.5854 43.2387 102.052 45.7001 105.167 45.7001C108.282 45.7001 110.748 43.3682 110.748 40.1295C110.748 36.7613 108.282 34.559 105.167 34.559ZM105.167 43.3682C103.479 43.3682 102.052 41.9432 102.052 40C102.052 38.0568 103.479 36.6318 105.167 36.6318C106.854 36.6318 108.282 37.9272 108.282 40C108.282 41.9432 106.854 43.3682 105.167 43.3682ZM90.7594 36.2431V38.575H96.3406C96.2108 39.8704 95.6916 40.9068 95.0426 41.5546C94.2638 42.3318 92.9659 43.2387 90.7594 43.2387C87.2549 43.2387 84.659 40.5182 84.659 37.0204C84.659 33.5226 87.3847 30.8021 90.7594 30.8021C92.5765 30.8021 94.0042 31.5794 95.0426 32.4863L96.7299 30.8021C95.3022 29.5067 93.4851 28.4703 90.8892 28.4703C86.2165 28.4703 82.1929 32.3567 82.1929 37.0204C82.1929 41.6841 86.2165 45.5705 90.8892 45.5705C93.4851 45.5705 95.3022 44.7932 96.8597 43.1091C98.4173 41.5546 98.9365 39.3523 98.9365 37.6681C98.9365 37.15 98.9365 36.6318 98.8067 36.2431H90.7594ZM149.686 38.0568C149.167 36.7613 147.869 34.559 145.014 34.559C142.158 34.559 139.822 36.7613 139.822 40.1295C139.822 43.2387 142.158 45.7001 145.273 45.7001C147.74 45.7001 149.297 44.1455 149.816 43.2387L147.999 41.9432C147.35 42.85 146.571 43.4978 145.273 43.4978C143.975 43.4978 143.197 42.9796 142.548 41.8137L149.946 38.7045L149.686 38.0568ZM142.158 39.8704C142.158 37.7977 143.846 36.6318 145.014 36.6318C145.922 36.6318 146.831 37.15 147.091 37.7977L142.158 39.8704ZM136.058 45.1819H138.524V28.9885H136.058V45.1819ZM132.164 35.7249C131.515 35.0772 130.477 34.4295 129.179 34.4295C126.453 34.4295 123.857 36.8909 123.857 40C123.857 43.1091 126.323 45.441 129.179 45.441C130.477 45.441 131.515 44.7932 132.034 44.1455H132.164V44.9228C132.164 46.9955 130.996 48.1615 129.179 48.1615C127.751 48.1615 126.713 47.1251 126.453 46.2183L124.376 47.1251C125.025 48.5501 126.583 50.3638 129.309 50.3638C132.164 50.3638 134.5 48.6797 134.5 44.6637V34.8181H132.164V35.7249ZM129.309 43.3682C127.621 43.3682 126.193 41.9432 126.193 40C126.193 38.0568 127.621 36.6318 129.309 36.6318C130.996 36.6318 132.294 38.0568 132.294 40C132.294 41.9432 130.996 43.3682 129.309 43.3682ZM160.979 28.9885H155.138V45.1819H157.604V39.0932H160.979C163.704 39.0932 166.3 37.15 166.3 34.0408C166.3 30.9317 163.704 28.9885 160.979 28.9885ZM161.108 36.7613H157.604V31.1908H161.108C162.926 31.1908 163.964 32.7453 163.964 33.9113C163.834 35.3363 162.796 36.7613 161.108 36.7613ZM176.035 34.4295C174.218 34.4295 172.401 35.2067 171.752 36.8909L173.958 37.7977C174.477 36.8909 175.256 36.6318 176.165 36.6318C177.463 36.6318 178.631 37.4091 178.761 38.7045V38.8341C178.371 38.575 177.333 38.1863 176.294 38.1863C173.958 38.1863 171.622 39.4818 171.622 41.8137C171.622 44.016 173.569 45.441 175.646 45.441C177.333 45.441 178.112 44.6637 178.761 43.8864H178.89V45.1819H181.227V38.9636C180.967 36.1136 178.761 34.4295 176.035 34.4295ZM175.775 43.3682C174.997 43.3682 173.828 42.9796 173.828 41.9432C173.828 40.6477 175.256 40.2591 176.424 40.2591C177.463 40.2591 177.982 40.5182 178.631 40.7773C178.371 42.3318 177.073 43.3682 175.775 43.3682ZM189.404 34.8181L186.678 41.8137H186.548L183.693 34.8181H181.097L185.38 44.6637L182.914 50.1047H185.38L192 34.8181H189.404ZM167.598 45.1819H170.064V28.9885H167.598V45.1819Z" fill="white"/>
<path d="M42.3456 16.0338C41.9562 16.4225 41.8264 17.0702 41.8264 17.8475V46.4774C41.8264 47.2547 42.086 47.9024 42.4754 48.2911L42.6052 48.4206L58.6998 32.3568V32.0977L42.3456 16.0338Z" fill="url(#paint0_linear)"/>
<path d="M63.8917 37.7978L58.5701 32.4863V32.0977L63.8917 26.7863L64.0215 26.9158L70.3814 30.5431C72.1986 31.5795 72.1986 33.2636 70.3814 34.3L63.8917 37.7978Z" fill="url(#paint1_linear)"/>
<path d="M64.0218 37.6681L58.5704 32.2272L42.3459 48.4206C42.9949 49.0683 43.9035 49.0683 45.0717 48.5501L64.0218 37.6681Z" fill="url(#paint2_linear)"/>
<path d="M64.0218 26.7862L45.0717 16.0338C43.9035 15.3861 42.9949 15.5156 42.3459 16.1634L58.5704 32.2272L64.0218 26.7862Z" fill="url(#paint3_linear)"/>
<path opacity="0.2" d="M63.892 37.5387L45.0717 48.1616C44.0333 48.8093 43.1247 48.6798 42.4757 48.1616L42.3459 48.2911L42.4757 48.4207C43.1247 48.9389 44.0333 49.0684 45.0717 48.4207L63.892 37.5387Z" fill="black"/>
<path opacity="0.2" d="M42.3456 48.1615C41.9562 47.7728 41.8264 47.1251 41.8264 46.3478V46.4774C41.8264 47.2547 42.086 47.9024 42.4754 48.291V48.1615H42.3456ZM70.3814 33.9113L63.8916 37.5386L64.0214 37.6681L70.3814 34.0408C71.29 33.5226 71.6793 32.8749 71.6793 32.2272C71.6793 32.8749 71.1602 33.3931 70.3814 33.9113Z" fill="black"/>
<path opacity="0.2" d="M45.0713 16.1634L70.3814 30.5431C71.1602 31.0613 71.6793 31.5795 71.6793 32.2273C71.6793 31.5795 71.29 30.9318 70.3814 30.4136L45.0713 16.0339C43.2542 14.9975 41.8264 15.7748 41.8264 17.8475V17.9771C41.8264 16.0339 43.2542 15.127 45.0713 16.1634Z" fill="white"/>
<defs>
<linearGradient id="paint0_linear" x1="57.1423" y1="17.6013" x2="35.4004" y2="39.3835" gradientUnits="userSpaceOnUse">
<stop stop-color="#00A0FF"/>
<stop offset="0.007" stop-color="#00A1FF"/>
<stop offset="0.26" stop-color="#00BEFF"/>
<stop offset="0.512" stop-color="#00D2FF"/>
<stop offset="0.76" stop-color="#00DFFF"/>
<stop offset="1" stop-color="#00E3FF"/>
</linearGradient>
<linearGradient id="paint1_linear" x1="72.7619" y1="32.2285" x2="41.3553" y2="32.2285" gradientUnits="userSpaceOnUse">
<stop stop-color="#FFE000"/>
<stop offset="0.409" stop-color="#FFBD00"/>
<stop offset="0.775" stop-color="#FFA500"/>
<stop offset="1" stop-color="#FF9C00"/>
</linearGradient>
<linearGradient id="paint2_linear" x1="61.0715" y1="35.2016" x2="31.5892" y2="64.7403" gradientUnits="userSpaceOnUse">
<stop stop-color="#FF3A44"/>
<stop offset="1" stop-color="#C31162"/>
</linearGradient>
<linearGradient id="paint3_linear" x1="38.3184" y1="6.54579" x2="51.4843" y2="19.7369" gradientUnits="userSpaceOnUse">
<stop stop-color="#32A071"/>
<stop offset="0.069" stop-color="#2DA771"/>
<stop offset="0.476" stop-color="#15CF74"/>
<stop offset="0.801" stop-color="#06E775"/>
<stop offset="1" stop-color="#00F076"/>
</linearGradient>
</defs>
</svg>
