<svg width="26" height="26" viewBox="0 0 26 26" fill="none" xmlns="http://www.w3.org/2000/svg">
<circle cx="12.9999" cy="12.9176" r="12.9176" fill="white"/>
<path fill-rule="evenodd" clip-rule="evenodd" d="M12.9349 10.5199L12.9065 10.0523C12.8212 8.84027 13.5695 7.73322 14.7536 7.30381C15.1893 7.15109 15.9282 7.132 16.4113 7.26563C16.6007 7.32289 16.9607 7.51373 17.2164 7.68553L17.6806 8.00047L18.1921 7.83824C18.4763 7.75231 18.8552 7.60917 19.0257 7.51373C19.1867 7.42786 19.3288 7.3801 19.3288 7.40877C19.3288 7.57099 18.9783 8.12452 18.6847 8.42989C18.2868 8.85936 18.4005 8.89754 19.2057 8.6112C19.6888 8.44897 19.6982 8.44897 19.6035 8.63029C19.5466 8.72574 19.253 9.05977 18.9404 9.36513C18.4099 9.89005 18.3816 9.94732 18.3816 10.3863C18.3816 11.0639 18.0595 12.4763 17.7374 13.2493C17.1407 14.6999 15.8619 16.1982 14.5831 16.9521C12.7834 18.0115 10.3868 18.2787 8.3692 17.6584C7.69667 17.4484 6.54102 16.9139 6.54102 16.8186C6.54102 16.7899 6.89147 16.7517 7.31777 16.7422C8.20816 16.7231 9.09856 16.475 9.85635 16.036L10.3679 15.7306L9.78057 15.5302C8.947 15.2439 8.19868 14.5854 8.00926 13.9651C7.95239 13.7647 7.97135 13.7551 8.5018 13.7551L9.05122 13.7456L8.58706 13.5261C8.03765 13.2493 7.53563 12.7817 7.28933 12.3045C7.10933 11.9609 6.88205 11.0925 6.94835 11.0257C6.96725 10.9971 7.16621 11.0543 7.39355 11.1307C8.04712 11.3692 8.13238 11.312 7.75349 10.9112C7.04303 10.1859 6.82517 9.10746 7.16621 8.08634L7.32725 7.62826L7.95239 8.24857C9.23121 9.49875 10.7373 10.2432 12.4613 10.4627L12.9349 10.5199Z" fill="#9B9BCA"/>
</svg>
