<svg width="23" height="19" viewBox="0 0 23 19" fill="none" xmlns="http://www.w3.org/2000/svg">
<path d="M22.1774 0.504819C21.2195 1.17295 20.1589 1.68397 19.0364 2.01819C18.434 1.33323 17.6333 0.847743 16.7427 0.627399C15.8521 0.407054 14.9146 0.46248 14.0569 0.786181C13.1992 1.10988 12.4628 1.68624 11.9471 2.4373C11.4315 3.18836 11.1616 4.07789 11.1739 4.98558V5.97471C9.41599 6.01978 7.67407 5.63426 6.10331 4.85249C4.53254 4.07071 3.18169 2.91695 2.17105 1.49395C2.17105 1.49395 -1.83023 10.3961 7.17264 14.3526C5.11251 15.7354 2.65836 16.4288 0.17041 16.3309C9.17328 21.2766 20.1768 16.3309 20.1768 4.95591C20.1759 4.68039 20.1491 4.40555 20.0968 4.13493C21.1177 3.13936 21.8381 1.88239 22.1774 0.504819Z" fill="white"/>
</svg>
