<svg width="509" height="485" viewBox="0 0 509 485" fill="none" xmlns="http://www.w3.org/2000/svg">
<path fill-rule="evenodd" clip-rule="evenodd" d="M189.527 24.7025C189.823 12.0747 199.701 1.74624 212.302 0.930347C282.149 -3.59416 425.142 9.57141 478.996 14.9303C491.487 16.1913 501.309 26.1489 502.365 38.6654C511.186 143.118 507.48 371.124 505.793 452.194C505.46 469.068 492.061 482.716 475.215 483.42C394.342 486.832 252.146 482.716 202.703 481.103C192.695 480.769 184.69 472.74 184.375 462.745C181.41 368.342 187.618 101.934 189.527 24.7025ZM210.031 48.8965C210.494 37.9561 219.204 29.1667 230.138 28.5733C288.403 25.4025 418.293 36.2131 468.867 40.719C481.098 41.8316 490.605 51.8448 491.013 64.1203C493.607 141.055 483.637 337 480.153 401.53C479.486 413.916 469.793 423.911 457.451 424.894C388.883 430.383 268.981 424.356 222.225 421.612C210.883 420.944 201.914 411.747 201.525 400.38C198.819 322.573 207.325 112.147 210.031 48.8965Z" fill="url(#paint0_linear)"/>
<path opacity="0.5" d="M311.689 14.4299C311.689 16.8034 313.542 18.7504 315.896 18.8802C327.571 19.4922 360.465 21.2167 375.161 22.0696C378.052 22.2365 380.332 19.622 379.776 16.7849L379.683 16.3028C379.312 14.3557 377.7 12.8908 375.717 12.7054C365.784 11.7968 335.799 9.27495 315.933 9.97958C313.561 10.0723 311.689 12.0379 311.689 14.4299Z" fill="#3F67F9"/>
<path d="M298.402 152.316C298.402 152.316 293.139 132.512 321.122 129.211C349.106 125.911 356.889 174.104 334.706 180.612C312.523 187.121 298.402 152.316 298.402 152.316Z" fill="url(#paint1_linear)"/>
<path d="M262.821 356.364L320.659 353.897L333.946 377.67L262.821 372.274V356.364Z" fill="url(#paint2_linear)"/>
<path d="M336.559 389.5C336.559 389.5 304.592 359.052 288.858 338.877C280.352 327.974 277.683 313.622 281.612 300.364C288.802 276.146 301.571 251.058 302.72 247.164C304.499 241.174 340.34 241.434 340.34 241.434C340.34 241.434 410.872 287.235 438.578 364.819L407.463 374.517C407.463 374.517 389.042 343.606 370.843 323.95C370.843 323.95 402.329 365.561 403.441 382.602L336.559 389.5Z" fill="url(#paint3_linear)"/>
<path d="M298.402 213.712C298.772 214.954 308.131 245.995 308.854 246.626C309.577 247.275 329.369 248.332 338.69 241.972L319.695 199.897L298.402 213.712Z" fill="url(#paint4_linear)"/>
<path d="M272.679 178.851C272.679 178.851 266.026 194.242 273.847 217.643C281.667 241.045 294.454 243.084 302.553 237.299C310.651 231.513 321.159 221.166 322.456 199.972C323.772 178.777 281.853 159.381 272.679 178.851Z" fill="url(#paint5_linear)"/>
<path d="M308.483 152.853C300.867 148.663 292.898 147.494 285.522 148.57C279.926 149.367 274.681 151.444 270.122 154.448C265.489 157.489 261.801 161.476 259.059 166.075C258.169 167.929 257.539 169.894 257.131 171.953C255.612 179.704 257.669 187.733 262.728 193.796C266.508 198.339 270.326 202.085 270.326 202.085L270.993 197.32C270.993 191.349 275.682 184.914 281.501 183.06C287.32 181.206 293.454 182.671 297.883 186.843C303.609 192.276 306.76 199.545 306.76 199.545L308.669 198.988C308.669 198.988 308.52 189.717 314.395 191.887C320.251 194.075 322.642 206.313 322.642 206.313C322.642 206.313 335.095 212.024 336.263 195.354C337.412 178.702 330.073 164.702 308.483 152.853Z" fill="url(#paint6_linear)"/>
<path d="M311.523 198.989C311.523 198.989 304.165 182.745 314.469 182.17C324.773 181.577 320.585 197.82 318.528 203.754L311.523 198.989Z" fill="url(#paint7_linear)"/>
<path d="M275.663 401.516L299.681 375.37L327.423 382.843C327.423 382.843 359.761 387.85 378.275 382.843C396.788 377.837 396.788 377.837 396.788 377.837L438.615 364.801L445.175 383.381C446.843 388.091 445.175 393.339 441.098 396.231C437.484 398.809 433.24 401.627 430.535 402.814C425.031 405.225 303.646 403.574 303.646 403.574L275.663 401.516Z" fill="url(#paint8_linear)"/>
<path d="M306.556 401.683L260.504 299.677C260.041 298.639 258.855 298.101 257.761 298.435L216.787 310.766C216.176 310.952 215.675 311.378 215.397 311.934C215.119 312.491 215.082 313.158 215.305 313.752L250.219 407.987C250.571 408.952 251.535 409.563 252.554 409.471L304.666 404.909C305.407 404.854 306.056 404.427 306.445 403.797C306.815 403.129 306.853 402.35 306.556 401.683Z" fill="url(#paint9_linear)"/>
<path d="M248.292 303.238L247.013 300.345C246.587 299.381 245.512 298.917 244.53 299.269L238.451 301.458C238.192 301.55 237.895 301.458 237.728 301.235L236.653 299.77C235.82 298.639 234.318 298.231 233.04 298.787L227.703 301.235C226.591 301.717 226.22 302.793 226.22 303.998V305.76C226.22 306.038 225.72 306.279 225.442 306.371L223.459 306.928C222.921 307.095 222.402 307.484 222.161 307.985C221.921 308.485 221.865 309.079 222.087 309.598L223.403 312.787C223.811 313.77 224.923 314.252 225.923 313.881L247.161 305.889C247.68 305.704 248.088 305.296 248.292 304.795C248.514 304.313 248.514 303.738 248.292 303.238Z" fill="url(#paint10_linear)"/>
<path d="M223.533 350.244C223.533 350.244 232.298 338.321 232.65 341.919C232.984 345.516 232.65 353.285 232.65 353.285C232.65 353.285 234.337 354.75 236.82 360.146C239.303 365.542 240.619 374.017 237.932 374.795C235.226 375.574 222.513 358.904 223.533 350.244Z" fill="url(#paint11_linear)"/>
<path d="M314.821 350.004C314.562 349.67 314.154 349.466 313.728 349.466C312.783 349.466 311.967 350.078 311.689 350.968L303.72 376.984L307.89 378.226L315.062 351.19C315.173 350.782 315.081 350.337 314.821 350.004Z" fill="url(#paint12_linear)"/>
<path d="M265.601 192.517C265.471 192.517 265.341 192.462 265.248 192.35C265.1 192.184 251.368 175.124 265.286 162.329C265.471 162.162 265.749 162.181 265.916 162.366C266.082 162.552 266.064 162.83 265.897 162.997C252.591 175.235 265.804 191.627 265.934 191.776C266.101 191.961 266.064 192.258 265.879 192.406C265.804 192.499 265.693 192.517 265.601 192.517Z" fill="white"/>
<path d="M359.724 126.318C359.724 153.317 385.984 175.272 418.878 175.346C452.31 175.42 479.83 152.946 479.83 125.132C479.83 97.317 452.31 75.3806 418.878 76.1223C386.003 76.8455 359.724 99.3196 359.724 126.318Z" fill="url(#paint13_linear)"/>
<path d="M359.724 126.318C359.724 153.317 385.984 175.272 418.878 175.346C452.31 175.42 479.83 152.946 479.83 125.132C479.83 97.317 452.31 75.3806 418.878 76.1223C386.003 76.8455 359.724 99.3196 359.724 126.318Z" fill="url(#paint14_linear)"/>
<path d="M393.545 167.725C388.282 170.358 382.834 172.973 377.163 175.569C372.474 177.72 367.841 179.741 363.32 181.669C363.486 177.034 365.506 172.695 367.953 165.407C370.566 157.619 372.901 149.627 375.717 145.733L393.545 167.725Z" fill="url(#paint15_linear)"/>
<path opacity="0.9" d="M464.246 110.001C464.246 111.911 462.726 113.413 460.873 113.413H379.833C377.961 113.413 376.46 111.929 376.46 110.001C376.46 108.091 377.979 106.589 379.833 106.589H460.873C462.726 106.607 464.246 108.091 464.246 110.001Z" fill="white"/>
<path opacity="0.9" d="M464.244 126.411C464.244 128.321 462.725 129.508 460.872 129.508H379.831C377.96 129.508 376.458 128.321 376.458 126.411C376.458 124.501 377.978 123.314 379.831 123.314H460.872C462.725 123.314 464.244 124.501 464.244 126.411Z" fill="white"/>
<path opacity="0.9" d="M446.676 143.119C446.676 145.029 445.157 146.827 443.303 146.827H379.813C377.941 146.827 376.44 145.029 376.44 143.119C376.44 141.209 377.96 139.41 379.813 139.41H443.303C445.157 139.41 446.676 141.209 446.676 143.119Z" fill="white"/>
<path d="M66.1591 86.9887C21.2376 110.353 -31.2635 170.432 24.9811 159.195C81.2071 147.958 46.6264 192.332 81.6704 191.238C116.696 190.144 170.92 182.671 206.409 145.881C241.898 109.092 207.41 100.303 193.029 101.73C145.68 106.403 192.343 21.3463 66.1591 86.9887Z" fill="url(#paint16_linear)"/>
<path d="M115.806 161.717C111.136 161.717 106.077 160.067 101.259 156.859C98.2381 154.838 95.6436 152.427 93.5495 149.794C89.0833 148.959 85.0804 147.309 83.116 146.438C82.5786 146.197 82.0782 145.955 81.5593 145.696C79.8544 145.028 78.2977 144.12 76.8707 143.063C71.7374 139.799 67.5121 135.887 63.1385 131.789C61.5819 130.342 59.9696 128.84 58.3017 127.357L58.0423 127.116C54.6509 124.093 54.0393 123.555 50.5368 126.189C47.4049 128.562 43.3464 134.31 43.8653 138.242C43.9394 138.798 43.5502 139.298 43.0128 139.373C42.4569 139.447 41.9565 139.057 41.8824 138.501C41.2338 133.661 45.8667 127.19 49.3322 124.575C54.132 120.922 56.0037 122.591 59.3766 125.595L59.636 125.818C61.3224 127.32 62.9532 128.822 64.5099 130.287C66.6411 132.271 68.7167 134.199 70.8849 136.035C69.5321 133.587 68.6796 130.954 68.4016 128.395C67.6233 121.275 70.9776 115.526 77.4823 112.634C79.2799 107.664 82.7824 103.121 88.1567 101.1C91.4183 99.8574 94.5503 99.9502 97.4598 101.322C97.8304 101.489 98.1825 101.693 98.5346 101.897C102.389 99.7647 106.54 98.6892 110.525 98.9303C116.455 99.2641 121.625 102.287 125.48 107.683C126.333 108.888 127.167 110.26 127.945 111.744C128.575 111.336 129.224 110.965 129.909 110.649C136.97 107.182 144.105 109.722 149.053 117.418C153.704 116.824 158.208 118.846 161.451 121.553C167.159 126.318 171.05 135.015 167.455 142.377C165.25 146.883 161.21 149.516 155.761 149.961C150.739 150.369 144.939 148.959 139.416 146.623C137.378 148.422 134.839 149.868 131.948 150.944C130.243 154.8 127.648 157.693 124.22 159.585C121.7 161.031 118.827 161.717 115.806 161.717ZM96.5517 150.22C98.2381 152.038 100.184 153.725 102.389 155.19C109.691 160.067 117.493 161.049 123.275 157.86C125.795 156.469 127.797 154.448 129.279 151.834C120.866 154.151 110.21 153.669 100.406 150.257C99.1276 150.369 97.8304 150.332 96.5517 150.22ZM104.558 149.423C112.304 151.5 120.421 151.741 127.167 150.257C120.995 148.347 117.826 139.502 117.215 134.904C116.918 132.604 116.992 130.268 117.4 127.987C116.066 124 117.067 121.071 117.975 119.457C119.328 117.047 121.737 115.285 124.591 114.469C124.776 114.302 124.961 114.117 125.147 113.95C120.069 110.612 113.675 110.353 107.041 113.208C107.337 113.932 107.56 114.581 107.726 115.1C108.838 118.456 109.246 122.109 108.968 125.688C109.042 125.799 109.135 125.929 109.209 126.04C114.009 133.179 114.213 140.393 109.746 145.826C108.301 147.587 106.522 148.737 104.558 149.423ZM119.031 131.473C118.994 132.53 119.05 133.587 119.198 134.644C119.846 139.54 123.571 148.626 129.613 148.626C129.65 148.626 129.705 148.626 129.742 148.626C130.095 148.626 130.428 148.589 130.762 148.57C131.077 147.698 131.336 146.771 131.559 145.807C131.762 144.88 131.929 143.934 132.059 142.97C126.648 139.781 122.163 136.016 119.921 132.846C119.587 132.363 119.29 131.918 119.031 131.473ZM95.2359 145.9C95.8475 146.215 96.4776 146.512 97.1262 146.79C98.3122 147.328 99.5168 147.791 100.74 148.236C103.631 147.921 106.3 146.864 108.208 144.546C112.804 138.965 110.821 132.771 108.579 128.803C107.819 132.827 106.207 136.61 103.816 139.651C101.463 142.618 98.5532 144.732 95.2359 145.9ZM140.973 145.121C145.995 147.161 151.184 148.366 155.595 147.995C160.376 147.606 163.749 145.436 165.639 141.542C168.789 135.108 165.25 127.412 160.153 123.147C157.503 120.941 153.927 119.235 150.183 119.402C153 124.594 157.151 135.034 152.555 140.077C151.036 141.746 148.923 142.544 146.458 142.414C145.383 142.358 144.29 142.117 143.252 141.728C142.622 143.026 141.825 144.157 140.973 145.121ZM94.68 147.977C94.7912 147.995 94.8838 148.014 94.995 148.032C94.8468 147.958 94.6985 147.884 94.5688 147.828C94.6058 147.865 94.6429 147.921 94.68 147.977ZM133.931 144.027C133.82 144.787 133.671 145.529 133.504 146.252C133.356 146.864 133.208 147.457 133.041 148.032C134.45 147.476 135.487 146.53 136.173 145.195C135.413 144.806 134.672 144.416 133.931 144.027ZM90.2694 146.957C90.7697 147.105 91.3072 147.253 91.8446 147.383C91.7334 147.198 91.6037 147.012 91.4925 146.827C91.0848 146.883 90.6771 146.92 90.2694 146.957ZM82.4303 143.879C83.8758 144.435 85.414 144.806 87.0633 144.936C87.9714 145.01 88.8424 145.028 89.6763 144.991C80.6513 138.909 75.7588 130.194 76.0368 120.292C76.0924 118.679 76.2963 117.01 76.704 115.341C72.0524 118.03 69.7915 122.573 70.4031 128.228C70.922 132.994 73.6462 138.019 77.89 141.32C79.3355 142.228 80.8366 143.081 82.4303 143.879ZM92.3635 144.305C92.4932 144.398 92.6415 144.472 92.7712 144.546C97.2745 143.508 100.314 140.819 102.222 138.39C104.836 135.052 106.448 130.732 106.911 126.244C104.706 123.222 101.907 120.57 98.8682 118.456C94.0314 122.777 90.7141 128.469 90.1026 133.977C89.7319 137.296 90.5659 140.893 92.3635 144.305ZM138.693 144.138C138.805 144.194 138.897 144.231 139.008 144.287C140.009 143.248 140.825 142.098 141.436 140.875C140.584 140.393 139.805 139.799 139.138 139.15C139.231 140.93 139.101 142.636 138.693 144.138ZM134.209 141.857C135.08 142.34 135.951 142.803 136.859 143.267C138.026 138.186 135.71 130.472 132.596 124.186C134.042 129.953 134.728 136.165 134.209 141.857ZM79.1502 114.173C78.4645 116.249 78.1124 118.382 78.0568 120.347C77.7973 128.933 81.8003 136.591 89.2686 142.21C88.2308 139.373 87.8231 136.498 88.1197 133.773C88.7683 127.95 92.1782 121.961 97.1633 117.344C94.5502 115.749 91.8261 114.562 89.1945 113.876C86.7483 117.937 85.0248 123.018 87.4525 126.8C87.749 127.264 87.6193 127.895 87.156 128.191C86.6927 128.488 86.0626 128.358 85.7661 127.895C83.0419 123.648 84.3762 118.178 87.1004 113.431C84.6912 113.042 82.4118 113.116 80.4289 113.746C79.9656 113.876 79.5579 114.024 79.1502 114.173ZM119.457 127.802C119.921 129.063 120.625 130.342 121.551 131.659C123.571 134.496 127.519 137.815 132.263 140.726C132.782 132.901 130.929 123.908 128.038 116.769C127.815 116.491 127.611 116.231 127.389 115.99C126.777 116.046 126.166 116.138 125.591 116.268C122.515 119.365 120.328 123.463 119.457 127.802ZM144.049 139.873C144.883 140.17 145.754 140.374 146.588 140.411C147.867 140.485 149.701 140.244 151.091 138.724C154.835 134.626 150.925 124.668 148.071 119.698C146.681 120.032 145.309 120.663 143.956 121.646C143.326 122.109 142.733 122.61 142.177 123.166C142.492 123.815 142.789 124.483 143.067 125.169C145.458 131.418 145.309 136.22 144.049 139.873ZM138.341 133.921C138.601 134.885 139.046 135.849 139.713 136.777C140.324 137.63 141.195 138.39 142.196 139.002C143.401 135.275 143.067 130.843 141.177 125.91C141.028 125.521 140.88 125.15 140.713 124.798C138.693 127.394 137.6 130.509 138.23 133.513C138.286 133.643 138.323 133.773 138.341 133.921ZM130.058 116.083C132.411 119.179 134.839 123.593 136.599 128.247C137.211 126.3 138.304 124.464 139.713 122.832C136.729 117.807 132.485 116.435 130.058 116.083ZM100.406 117.177C102.89 118.957 105.169 121.015 107.059 123.203C107.022 120.663 106.633 118.122 105.836 115.73C105.688 115.267 105.484 114.692 105.225 114.061C103.52 114.951 101.889 115.99 100.406 117.177ZM121.144 118.604C120.569 119.142 120.087 119.754 119.698 120.44C119.253 121.238 118.957 122.091 118.827 122.999C119.457 121.479 120.236 119.995 121.144 118.604ZM129.02 113.969C129.131 113.969 129.242 113.987 129.353 113.987C134.153 114.34 138.36 117.028 141.14 121.367C141.659 120.885 142.196 120.44 142.77 120.032C144.142 119.031 145.532 118.345 146.94 117.918C142.622 111.651 136.655 109.63 130.799 112.504C130.132 112.838 129.483 113.208 128.853 113.616C128.909 113.728 128.964 113.839 129.02 113.969ZM90.3064 112.114C93.1418 112.949 95.9957 114.302 98.6644 115.99C100.443 114.544 102.371 113.246 104.428 112.207C103.186 109.537 101.24 106.347 98.479 104.308C96.3108 105.643 94.2537 107.367 92.4376 109.426C91.7519 110.186 91.0292 111.095 90.3064 112.114ZM115.899 109.259C119.457 109.259 122.83 110.167 125.777 111.985C125.165 110.853 124.516 109.834 123.849 108.906C120.365 104.011 115.732 101.285 110.432 100.989C107.096 100.803 103.649 101.619 100.369 103.269C103.075 105.55 104.984 108.721 106.225 111.391C109.506 109.963 112.767 109.259 115.899 109.259ZM92.6971 102.287C91.4739 102.287 90.1952 102.528 88.898 103.028C84.7654 104.586 81.8744 107.942 80.1138 111.744C82.6157 111.039 85.3955 111.039 88.2123 111.614C89.0648 110.353 89.9914 109.166 90.955 108.091C92.66 106.181 94.5688 104.512 96.5888 103.177C95.3286 102.583 94.0314 102.287 92.6971 102.287Z" fill="white"/>
<path d="M83.4867 203.346C83.4126 207.37 80.466 213.953 73.8316 213.823C67.1971 213.693 59.3951 206.907 59.4693 202.901C59.5434 198.877 64.9733 195.725 71.6077 195.855C78.2422 195.985 83.5608 199.341 83.4867 203.346Z" fill="url(#paint17_linear)"/>
<path d="M93.4383 219.534C93.4012 221.481 91.6963 223.02 89.6207 222.983C87.5451 222.946 83.4495 220.869 83.4866 218.941C83.5236 216.994 86.0996 215.047 88.1566 215.084C90.2322 215.121 93.4753 217.587 93.4383 219.534Z" fill="url(#paint18_linear)"/>
<defs>
<linearGradient id="paint0_linear" x1="214.051" y1="431.339" x2="622.816" y2="-154.639" gradientUnits="userSpaceOnUse">
<stop stop-color="#2B3582"/>
<stop offset="1" stop-color="#150E42"/>
</linearGradient>
<linearGradient id="paint1_linear" x1="289.894" y1="114.988" x2="348.31" y2="179.715" gradientUnits="userSpaceOnUse">
<stop stop-color="#2B3582"/>
<stop offset="1" stop-color="#150E42"/>
</linearGradient>
<linearGradient id="paint2_linear" x1="262.829" y1="365.784" x2="333.953" y2="365.784" gradientUnits="userSpaceOnUse">
<stop stop-color="#F9B776"/>
<stop offset="1" stop-color="#F47960"/>
</linearGradient>
<linearGradient id="paint3_linear" x1="277.715" y1="254.4" x2="680.613" y2="642.805" gradientUnits="userSpaceOnUse">
<stop stop-color="#FDF53F"/>
<stop offset="1" stop-color="#D93C65"/>
</linearGradient>
<linearGradient id="paint4_linear" x1="328.147" y1="289.465" x2="316.528" y2="214.955" gradientUnits="userSpaceOnUse">
<stop stop-color="#F9B776"/>
<stop offset="1" stop-color="#F47960"/>
</linearGradient>
<linearGradient id="paint5_linear" x1="267.465" y1="209.259" x2="356.882" y2="194.283" gradientUnits="userSpaceOnUse">
<stop stop-color="#F9B776"/>
<stop offset="1" stop-color="#F47960"/>
</linearGradient>
<linearGradient id="paint6_linear" x1="406.319" y1="62.5926" x2="98.8041" y2="403.329" gradientUnits="userSpaceOnUse">
<stop stop-color="#2B3582"/>
<stop offset="1" stop-color="#150E42"/>
</linearGradient>
<linearGradient id="paint7_linear" x1="266.142" y1="201.364" x2="355.561" y2="186.388" gradientUnits="userSpaceOnUse">
<stop stop-color="#F9B776"/>
<stop offset="1" stop-color="#F47960"/>
</linearGradient>
<linearGradient id="paint8_linear" x1="381.715" y1="384.467" x2="551.868" y2="384.467" gradientUnits="userSpaceOnUse">
<stop stop-color="#F9B776"/>
<stop offset="1" stop-color="#F47960"/>
</linearGradient>
<linearGradient id="paint9_linear" x1="215.166" y1="353.901" x2="306.756" y2="353.901" gradientUnits="userSpaceOnUse">
<stop stop-color="#2B3582"/>
<stop offset="1" stop-color="#150E42"/>
</linearGradient>
<linearGradient id="paint10_linear" x1="221.96" y1="306.298" x2="248.461" y2="306.298" gradientUnits="userSpaceOnUse">
<stop stop-color="#B37CFF"/>
<stop offset="1" stop-color="#F895E7"/>
</linearGradient>
<linearGradient id="paint11_linear" x1="223.477" y1="358.032" x2="239.404" y2="358.032" gradientUnits="userSpaceOnUse">
<stop stop-color="#F9B776"/>
<stop offset="1" stop-color="#F47960"/>
</linearGradient>
<linearGradient id="paint12_linear" x1="303.717" y1="363.845" x2="315.111" y2="363.845" gradientUnits="userSpaceOnUse">
<stop stop-color="#2B3582"/>
<stop offset="1" stop-color="#150E42"/>
</linearGradient>
<linearGradient id="paint13_linear" x1="441.985" y1="84.5536" x2="359.904" y2="236.698" gradientUnits="userSpaceOnUse">
<stop stop-color="#FF9085"/>
<stop offset="1" stop-color="#FB6FBB"/>
</linearGradient>
<linearGradient id="paint14_linear" x1="441.985" y1="84.5536" x2="359.904" y2="236.698" gradientUnits="userSpaceOnUse">
<stop stop-color="#B37CFF"/>
<stop offset="1" stop-color="#F895E7"/>
</linearGradient>
<linearGradient id="paint15_linear" x1="449.17" y1="71.7968" x2="327.158" y2="232.193" gradientUnits="userSpaceOnUse">
<stop stop-color="#B37CFF"/>
<stop offset="1" stop-color="#F895E7"/>
</linearGradient>
<linearGradient id="paint16_linear" x1="160.991" y1="46.043" x2="60.1911" y2="228.114" gradientUnits="userSpaceOnUse">
<stop stop-color="#B37CFF"/>
<stop offset="1" stop-color="#F895E7"/>
</linearGradient>
<linearGradient id="paint17_linear" x1="226.735" y1="-14.6546" x2="-59.6032" y2="388.409" gradientUnits="userSpaceOnUse">
<stop stop-color="#B37CFF"/>
<stop offset="1" stop-color="#F895E7"/>
</linearGradient>
<linearGradient id="paint18_linear" x1="245.189" y1="-1.54412" x2="-41.15" y2="401.521" gradientUnits="userSpaceOnUse">
<stop stop-color="#B37CFF"/>
<stop offset="1" stop-color="#F895E7"/>
</linearGradient>
</defs>
</svg>
